<svg xmlns="http://www.w3.org/2000/svg" xmlns:xlink="http://www.w3.org/1999/xlink" width="500" zoomAndPan="magnify" viewBox="0 0 375 374.999991" height="500" preserveAspectRatio="xMidYMid meet" version="1.0"><defs><g/><clipPath id="6f5ee4b08e"><path d="M 77.222656 37.5 L 297.777344 37.5 L 297.777344 258.054688 L 77.222656 258.054688 Z M 77.222656 37.5 " clip-rule="nonzero"/></clipPath><clipPath id="c70dc96510"><path d="M 187.5 37.5 C 126.59375 37.5 77.222656 86.871094 77.222656 147.777344 C 77.222656 208.683594 126.59375 258.054688 187.5 258.054688 C 248.40625 258.054688 297.777344 208.683594 297.777344 147.777344 C 297.777344 86.871094 248.40625 37.5 187.5 37.5 Z M 187.5 37.5 " clip-rule="nonzero"/></clipPath><clipPath id="4e4805c7a4"><path d="M 113 37.5 L 262 37.5 L 262 124.5 L 113 124.5 Z M 113 37.5 " clip-rule="nonzero"/></clipPath><clipPath id="4e0a3bd9ce"><path d="M 106.09375 85 L 268.84375 85 L 268.84375 249 L 106.09375 249 Z M 106.09375 85 " clip-rule="nonzero"/></clipPath><clipPath id="489b881a3a"><path d="M 148 114 L 223.617188 114 L 223.617188 220 L 148 220 Z M 148 114 " clip-rule="nonzero"/></clipPath></defs><rect x="-37.5" width="450" fill="#ffffff" y="-37.499999" height="449.999989" fill-opacity="1"/><rect x="-37.5" width="450" fill="#f1ecd8" y="-37.499999" height="449.999989" fill-opacity="1"/><g clip-path="url(#6f5ee4b08e)"><g clip-path="url(#c70dc96510)"><path fill="#796647" d="M 77.222656 37.5 L 297.777344 37.5 L 297.777344 258.054688 L 77.222656 258.054688 Z M 77.222656 37.5 " fill-opacity="1" fill-rule="nonzero"/></g></g><g clip-path="url(#4e4805c7a4)"><path fill="#c2bb9f" d="M 257.394531 108.929688 L 226.519531 92.605469 C 226.382812 92.550781 226.246094 92.511719 226.105469 92.480469 C 225.941406 92.414062 225.769531 92.363281 225.59375 92.328125 C 225.429688 92.320312 225.261719 92.324219 225.09375 92.347656 C 224.921875 92.347656 224.753906 92.367188 224.585938 92.402344 C 224.429688 92.457031 224.28125 92.523438 224.136719 92.605469 C 223.976562 92.671875 223.824219 92.753906 223.679688 92.847656 C 223.550781 92.964844 223.433594 93.089844 223.328125 93.226562 C 223.214844 93.324219 223.113281 93.433594 223.023438 93.550781 C 222.628906 94.179688 222.105469 94.675781 221.453125 95.035156 C 220.800781 95.390625 220.101562 95.566406 219.359375 95.5625 C 219.070312 95.5625 218.78125 95.53125 218.5 95.476562 C 218.214844 95.417969 217.9375 95.335938 217.671875 95.222656 C 217.40625 95.113281 217.152344 94.976562 216.910156 94.816406 C 216.671875 94.65625 216.449219 94.472656 216.242188 94.269531 C 216.039062 94.0625 215.855469 93.839844 215.695312 93.601562 C 215.535156 93.359375 215.398438 93.105469 215.289062 92.839844 C 215.175781 92.570312 215.09375 92.296875 215.035156 92.011719 C 214.980469 91.730469 214.953125 91.441406 214.953125 91.152344 C 214.941406 90.605469 215.046875 90.078125 215.269531 89.574219 C 215.328125 89.417969 215.367188 89.257812 215.394531 89.09375 C 215.453125 88.933594 215.492188 88.769531 215.519531 88.601562 C 215.519531 88.425781 215.5 88.253906 215.464844 88.082031 C 215.472656 87.730469 215.367188 87.414062 215.148438 87.136719 C 215.082031 86.988281 214.996094 86.84375 214.902344 86.710938 C 214.773438 86.582031 214.628906 86.464844 214.476562 86.363281 C 214.367188 86.257812 214.25 86.160156 214.121094 86.074219 L 191.121094 73.910156 C 190.796875 73.757812 190.464844 73.628906 190.125 73.527344 C 190.394531 71.902344 191 70.40625 191.933594 69.046875 C 192.871094 67.691406 194.050781 66.59375 195.476562 65.761719 C 196.566406 65.078125 197.550781 64.269531 198.433594 63.335938 C 199.316406 62.402344 200.070312 61.375 200.691406 60.25 C 201.3125 59.125 201.785156 57.9375 202.105469 56.695312 C 202.421875 55.449219 202.582031 54.183594 202.578125 52.898438 C 202.566406 51.902344 202.457031 50.917969 202.253906 49.945312 C 202.050781 48.96875 201.753906 48.023438 201.367188 47.109375 C 200.980469 46.191406 200.511719 45.320312 199.953125 44.492188 C 199.398438 43.667969 198.769531 42.902344 198.066406 42.199219 C 197.363281 41.496094 196.597656 40.867188 195.773438 40.308594 C 194.945312 39.753906 194.074219 39.285156 193.15625 38.898438 C 192.242188 38.511719 191.296875 38.214844 190.320312 38.011719 C 189.347656 37.808594 188.363281 37.699219 187.367188 37.683594 C 186.367188 37.6875 185.378906 37.785156 184.402344 37.980469 C 183.421875 38.175781 182.46875 38.464844 181.546875 38.847656 C 180.625 39.230469 179.75 39.699219 178.917969 40.253906 C 178.089844 40.808594 177.320312 41.441406 176.617188 42.144531 C 175.910156 42.851562 175.277344 43.621094 174.722656 44.449219 C 174.167969 45.28125 173.699219 46.15625 173.316406 47.078125 C 172.933594 48 172.644531 48.953125 172.449219 49.929688 C 172.253906 50.910156 172.15625 51.898438 172.15625 52.898438 C 172.15625 53.25 172.222656 53.589844 172.355469 53.914062 C 172.492188 54.238281 172.683594 54.527344 172.933594 54.773438 C 173.179688 55.023438 173.46875 55.214844 173.792969 55.351562 C 174.117188 55.484375 174.457031 55.554688 174.808594 55.554688 C 175.160156 55.554688 175.5 55.484375 175.824219 55.351562 C 176.152344 55.214844 176.4375 55.023438 176.6875 54.773438 C 176.9375 54.527344 177.128906 54.238281 177.261719 53.914062 C 177.398438 53.589844 177.464844 53.25 177.464844 52.898438 C 177.464844 52.246094 177.53125 51.605469 177.65625 50.96875 C 177.785156 50.328125 177.972656 49.710938 178.222656 49.109375 C 178.46875 48.507812 178.777344 47.9375 179.136719 47.398438 C 179.5 46.859375 179.910156 46.359375 180.367188 45.898438 C 180.828125 45.4375 181.328125 45.027344 181.867188 44.667969 C 182.410156 44.304688 182.980469 44 183.578125 43.753906 C 184.179688 43.503906 184.796875 43.316406 185.4375 43.1875 C 186.074219 43.058594 186.71875 42.996094 187.367188 42.996094 C 188.011719 43.011719 188.652344 43.089844 189.28125 43.226562 C 189.914062 43.363281 190.523438 43.5625 191.117188 43.816406 C 191.710938 44.070312 192.273438 44.378906 192.808594 44.742188 C 193.34375 45.101562 193.839844 45.511719 194.296875 45.96875 C 194.753906 46.425781 195.164062 46.921875 195.523438 47.457031 C 195.886719 47.988281 196.195312 48.554688 196.449219 49.148438 C 196.703125 49.742188 196.902344 50.351562 197.039062 50.984375 C 197.175781 51.613281 197.253906 52.253906 197.269531 52.898438 C 197.269531 53.734375 197.167969 54.558594 196.960938 55.367188 C 196.75 56.179688 196.445312 56.949219 196.039062 57.683594 C 195.636719 58.414062 195.144531 59.085938 194.570312 59.691406 C 193.996094 60.300781 193.355469 60.824219 192.644531 61.269531 C 191.570312 61.917969 190.582031 62.679688 189.683594 63.554688 C 188.785156 64.429688 187.992188 65.394531 187.316406 66.449219 C 186.636719 67.503906 186.085938 68.621094 185.664062 69.804688 C 185.242188 70.984375 184.957031 72.199219 184.8125 73.445312 C 184.414062 73.558594 184.027344 73.707031 183.65625 73.886719 L 160.613281 86.074219 C 160.484375 86.160156 160.367188 86.257812 160.257812 86.363281 C 160.105469 86.464844 159.960938 86.582031 159.832031 86.710938 C 159.738281 86.84375 159.652344 86.988281 159.585938 87.136719 C 159.367188 87.414062 159.261719 87.730469 159.269531 88.082031 C 159.234375 88.253906 159.214844 88.425781 159.214844 88.601562 C 159.242188 88.769531 159.28125 88.933594 159.339844 89.09375 C 159.367188 89.257812 159.40625 89.417969 159.464844 89.574219 C 159.6875 90.078125 159.792969 90.605469 159.78125 91.152344 C 159.78125 91.441406 159.753906 91.730469 159.699219 92.011719 C 159.640625 92.296875 159.558594 92.570312 159.445312 92.839844 C 159.335938 93.105469 159.199219 93.359375 159.039062 93.601562 C 158.878906 93.839844 158.695312 94.0625 158.492188 94.269531 C 158.285156 94.472656 158.0625 94.65625 157.824219 94.816406 C 157.582031 94.976562 157.328125 95.113281 157.0625 95.222656 C 156.796875 95.335938 156.519531 95.417969 156.234375 95.476562 C 155.953125 95.53125 155.664062 95.5625 155.375 95.5625 C 154.632812 95.566406 153.933594 95.390625 153.28125 95.035156 C 152.628906 94.675781 152.105469 94.179688 151.710938 93.550781 C 151.621094 93.4375 151.523438 93.332031 151.414062 93.238281 C 151.308594 93.09375 151.183594 92.964844 151.050781 92.847656 C 150.910156 92.753906 150.765625 92.675781 150.609375 92.613281 C 150.316406 92.421875 149.992188 92.332031 149.640625 92.351562 C 149.476562 92.328125 149.308594 92.320312 149.140625 92.332031 C 148.960938 92.363281 148.789062 92.414062 148.621094 92.484375 C 148.484375 92.511719 148.347656 92.550781 148.214844 92.605469 L 117.332031 108.933594 C 116.535156 109.355469 115.832031 109.894531 115.21875 110.550781 C 114.601562 111.210938 114.113281 111.949219 113.746094 112.769531 C 113.378906 113.59375 113.152344 114.453125 113.074219 115.347656 C 112.996094 116.246094 113.0625 117.128906 113.28125 118.003906 C 113.496094 118.878906 113.851562 119.691406 114.339844 120.445312 C 114.828125 121.203125 115.429688 121.855469 116.136719 122.410156 C 116.84375 122.96875 117.625 123.390625 118.476562 123.683594 C 119.328125 123.980469 120.203125 124.125 121.101562 124.125 L 253.632812 124.125 C 254.53125 124.125 255.410156 123.980469 256.257812 123.683594 C 257.109375 123.390625 257.890625 122.964844 258.597656 122.410156 C 259.308594 121.855469 259.90625 121.199219 260.398438 120.445312 C 260.886719 119.6875 261.238281 118.875 261.457031 118 C 261.671875 117.125 261.738281 116.242188 261.660156 115.34375 C 261.578125 114.449219 261.355469 113.589844 260.988281 112.765625 C 260.621094 111.945312 260.128906 111.207031 259.511719 110.546875 C 258.898438 109.890625 258.191406 109.351562 257.394531 108.929688 Z M 256.300781 116.734375 C 256.234375 117.035156 256.121094 117.316406 255.957031 117.578125 C 255.789062 117.839844 255.585938 118.066406 255.34375 118.257812 C 255.101562 118.449219 254.832031 118.589844 254.535156 118.6875 C 254.242188 118.785156 253.941406 118.828125 253.632812 118.816406 L 121.101562 118.816406 C 120.792969 118.816406 120.496094 118.765625 120.203125 118.664062 C 119.914062 118.5625 119.648438 118.417969 119.40625 118.230469 C 119.164062 118.039062 118.960938 117.816406 118.792969 117.554688 C 118.625 117.296875 118.507812 117.019531 118.433594 116.722656 C 118.359375 116.421875 118.335938 116.121094 118.363281 115.8125 C 118.390625 115.507812 118.46875 115.214844 118.59375 114.933594 C 118.71875 114.652344 118.886719 114.402344 119.097656 114.175781 C 119.308594 113.953125 119.546875 113.769531 119.820312 113.625 L 148.804688 98.296875 C 149.695312 99.128906 150.710938 99.765625 151.84375 100.210938 C 152.980469 100.65625 154.15625 100.875 155.375 100.871094 C 156.015625 100.871094 156.644531 100.808594 157.269531 100.683594 C 157.898438 100.558594 158.503906 100.371094 159.09375 100.128906 C 159.683594 99.882812 160.242188 99.585938 160.773438 99.230469 C 161.300781 98.875 161.792969 98.472656 162.242188 98.019531 C 162.695312 97.570312 163.097656 97.078125 163.453125 96.550781 C 163.804688 96.019531 164.105469 95.460938 164.351562 94.871094 C 164.59375 94.28125 164.777344 93.675781 164.902344 93.046875 C 165.027344 92.421875 165.09375 91.792969 165.09375 91.152344 C 165.078125 90.695312 165.027344 90.238281 164.949219 89.785156 L 186.179688 78.558594 C 186.546875 78.363281 186.9375 78.269531 187.351562 78.273438 L 187.367188 78.277344 L 187.375 78.277344 C 187.808594 78.277344 188.214844 78.378906 188.597656 78.582031 L 209.785156 89.785156 C 209.707031 90.238281 209.65625 90.695312 209.640625 91.152344 C 209.644531 91.792969 209.707031 92.421875 209.832031 93.046875 C 209.957031 93.675781 210.140625 94.28125 210.382812 94.871094 C 210.628906 95.460938 210.929688 96.019531 211.28125 96.550781 C 211.636719 97.078125 212.039062 97.570312 212.492188 98.019531 C 212.941406 98.472656 213.433594 98.875 213.960938 99.230469 C 214.492188 99.585938 215.050781 99.882812 215.640625 100.128906 C 216.230469 100.371094 216.835938 100.558594 217.464844 100.683594 C 218.089844 100.808594 218.71875 100.871094 219.359375 100.871094 C 220.578125 100.875 221.753906 100.65625 222.890625 100.210938 C 224.023438 99.765625 225.039062 99.128906 225.929688 98.296875 L 254.910156 113.621094 C 255.1875 113.757812 255.4375 113.9375 255.652344 114.164062 C 255.867188 114.386719 256.039062 114.640625 256.167969 114.925781 C 256.292969 115.210938 256.371094 115.507812 256.390625 115.816406 C 256.414062 116.128906 256.382812 116.433594 256.300781 116.734375 Z M 256.300781 116.734375 " fill-opacity="1" fill-rule="nonzero"/></g><g clip-path="url(#4e0a3bd9ce)"><path fill="#c2bb9f" d="M 214.632812 85.234375 C 244.601562 85.234375 268.902344 109.535156 268.902344 139.503906 L 238.203125 152.222656 L 255.332031 219.949219 C 217.871094 257.410156 157.117188 257.410156 119.660156 219.949219 L 136.792969 152.222656 L 106.09375 139.503906 C 106.09375 109.535156 130.390625 85.234375 160.363281 85.234375 L 167.144531 85.234375 C 167.144531 96.46875 176.261719 105.585938 187.496094 105.585938 C 198.734375 105.585938 207.847656 96.46875 207.847656 85.234375 Z M 214.632812 85.234375 " fill-opacity="1" fill-rule="nonzero"/></g><g clip-path="url(#489b881a3a)"><path fill="#796647" d="M 166.101562 187.546875 L 166.101562 199.765625 C 166.535156 203.207031 167.015625 205.179688 167.582031 205.746094 C 168.128906 206.34375 169.613281 206.65625 172.011719 206.65625 L 198.703125 206.65625 C 200.707031 206.65625 203.953125 206.898438 206.804688 206.75 C 213.316406 206.40625 219.515625 198.8125 222.371094 193.449219 L 223.910156 193.449219 C 223.542969 195.898438 222.417969 199.761719 220.46875 205.042969 C 219.839844 206.742188 218.527344 209.925781 217.332031 212.933594 L 166.699219 212.933594 L 166.695312 212.925781 C 166.632812 212.867188 166.574219 212.808594 166.515625 212.75 L 166.515625 212.746094 C 166.457031 212.6875 166.402344 212.628906 166.34375 212.570312 L 166.3125 212.535156 C 166.261719 212.484375 166.214844 212.433594 166.164062 212.378906 L 166.132812 212.347656 C 166.085938 212.292969 166.039062 212.242188 165.988281 212.1875 L 165.949219 212.144531 L 165.785156 211.957031 C 165.742188 211.90625 165.695312 211.855469 165.652344 211.804688 L 165.574219 211.710938 L 165.480469 211.601562 L 165.386719 211.484375 L 165.324219 211.402344 L 165.222656 211.277344 L 165.160156 211.195312 L 165.058594 211.0625 L 165.003906 210.992188 L 164.910156 210.863281 L 164.847656 210.773438 L 164.75 210.640625 L 164.699219 210.566406 C 164.664062 210.515625 164.628906 210.46875 164.597656 210.417969 L 164.554688 210.355469 L 164.445312 210.191406 L 164.410156 210.136719 C 164.375 210.082031 164.339844 210.027344 164.304688 209.96875 L 164.269531 209.910156 C 164.234375 209.855469 164.199219 209.800781 164.167969 209.746094 L 164.128906 209.683594 C 164.097656 209.628906 164.0625 209.574219 164.03125 209.515625 L 164 209.464844 C 163.96875 209.40625 163.933594 209.347656 163.902344 209.289062 L 163.871094 209.230469 C 163.835938 209.167969 163.804688 209.109375 163.769531 209.046875 L 163.746094 209 C 163.714844 208.941406 163.683594 208.878906 163.652344 208.816406 L 163.625 208.761719 C 163.59375 208.703125 163.5625 208.640625 163.53125 208.574219 L 163.507812 208.523438 C 163.476562 208.460938 163.449219 208.398438 163.421875 208.339844 L 163.394531 208.28125 C 163.363281 208.210938 163.332031 208.140625 163.300781 208.070312 L 163.289062 208.046875 C 163.257812 207.976562 163.230469 207.902344 163.199219 207.832031 L 163.183594 207.792969 C 163.15625 207.722656 163.125 207.652344 163.097656 207.582031 L 163.082031 207.542969 C 163.054688 207.472656 163.027344 207.398438 163 207.328125 L 162.988281 207.289062 C 162.960938 207.210938 162.933594 207.136719 162.90625 207.058594 L 162.898438 207.039062 C 162.8125 206.785156 162.730469 206.523438 162.65625 206.257812 L 162.65625 206.253906 L 162.652344 206.246094 C 162.628906 206.160156 162.605469 206.074219 162.582031 205.984375 L 162.582031 205.980469 C 162.558594 205.890625 162.535156 205.800781 162.515625 205.710938 C 161.253906 200.371094 163.101562 194.410156 165.210938 189.527344 L 165.222656 189.496094 L 165.238281 189.464844 L 165.25 189.433594 L 165.332031 189.246094 L 165.34375 189.214844 L 165.347656 189.214844 L 165.359375 189.183594 L 165.453125 188.96875 L 165.46875 188.9375 L 165.480469 188.90625 L 165.484375 188.90625 L 165.496094 188.875 L 165.511719 188.84375 L 165.59375 188.660156 L 165.605469 188.628906 L 165.621094 188.597656 L 165.621094 188.59375 L 165.632812 188.566406 L 165.664062 188.503906 L 165.675781 188.472656 L 165.691406 188.441406 L 165.71875 188.378906 L 165.730469 188.347656 L 165.746094 188.320312 L 165.761719 188.289062 L 165.761719 188.285156 L 165.773438 188.257812 L 165.789062 188.226562 L 165.800781 188.195312 L 165.832031 188.132812 L 165.84375 188.101562 L 165.859375 188.070312 L 165.871094 188.039062 L 165.886719 188.011719 L 165.914062 187.949219 L 165.945312 187.886719 L 165.957031 187.855469 L 165.988281 187.792969 L 166 187.761719 L 166.015625 187.734375 L 166.03125 187.703125 L 166.042969 187.671875 L 166.046875 187.667969 L 166.058594 187.640625 L 166.074219 187.609375 L 166.085938 187.578125 Z M 162.941406 116.300781 C 182.753906 109.375 193.289062 123 187.921875 142.269531 C 180.769531 167.96875 138.867188 203.105469 172.789062 219.992188 C 172.789062 219.992188 151.910156 215.8125 151.179688 199.753906 C 150.40625 182.722656 171.964844 163.273438 178.316406 142.574219 C 182.230469 129.8125 181.664062 116.742188 162.941406 116.300781 Z M 171.574219 152.382812 L 171.574219 120.363281 C 171.625 120.386719 171.679688 120.414062 171.730469 120.4375 L 171.953125 120.542969 L 172.003906 120.570312 L 172.222656 120.679688 C 172.277344 120.707031 172.332031 120.738281 172.382812 120.765625 L 172.425781 120.789062 C 172.480469 120.816406 172.53125 120.847656 172.582031 120.878906 L 172.625 120.898438 C 172.675781 120.929688 172.730469 120.960938 172.78125 120.992188 L 172.84375 121.027344 L 172.984375 121.117188 L 173.039062 121.148438 C 173.089844 121.179688 173.140625 121.214844 173.191406 121.246094 L 173.222656 121.265625 C 173.28125 121.304688 173.339844 121.34375 173.398438 121.382812 L 173.421875 121.398438 C 173.472656 121.4375 173.527344 121.472656 173.582031 121.511719 L 173.613281 121.535156 C 173.664062 121.570312 173.714844 121.609375 173.765625 121.648438 L 173.800781 121.675781 C 173.855469 121.714844 173.90625 121.753906 173.957031 121.792969 L 173.992188 121.824219 C 174.042969 121.863281 174.09375 121.902344 174.140625 121.945312 L 174.164062 121.960938 C 174.21875 122.007812 174.273438 122.054688 174.328125 122.101562 L 174.335938 122.105469 L 174.335938 122.109375 C 174.390625 122.15625 174.445312 122.203125 174.496094 122.25 L 174.523438 122.277344 C 174.574219 122.320312 174.621094 122.367188 174.667969 122.414062 L 174.6875 122.429688 C 174.742188 122.480469 174.792969 122.535156 174.847656 122.585938 L 174.855469 122.597656 C 174.90625 122.648438 174.953125 122.699219 175.003906 122.75 L 175.027344 122.773438 C 175.074219 122.824219 175.121094 122.875 175.167969 122.929688 L 175.175781 122.9375 L 175.179688 122.9375 L 175.179688 122.941406 C 175.230469 122.996094 175.277344 123.050781 175.324219 123.105469 L 175.34375 123.128906 C 175.386719 123.183594 175.433594 123.238281 175.476562 123.289062 L 175.492188 123.308594 C 175.539062 123.367188 175.582031 123.425781 175.628906 123.484375 L 175.632812 123.492188 L 175.640625 123.5 C 175.683594 123.554688 175.726562 123.613281 175.769531 123.671875 L 175.789062 123.703125 C 175.832031 123.761719 175.875 123.820312 175.914062 123.882812 L 175.917969 123.890625 C 175.964844 123.953125 176.007812 124.019531 176.050781 124.085938 L 176.0625 124.101562 C 176.101562 124.164062 176.140625 124.226562 176.175781 124.289062 L 176.191406 124.3125 C 176.230469 124.378906 176.269531 124.449219 176.308594 124.515625 C 179.09375 129.414062 177.570312 136.804688 176.019531 141.871094 L 175.925781 142.167969 L 175.917969 142.195312 L 175.910156 142.21875 L 175.8125 142.519531 L 175.8125 142.523438 L 175.804688 142.542969 C 175.773438 142.640625 175.742188 142.738281 175.710938 142.839844 L 175.707031 142.847656 L 175.695312 142.878906 L 175.601562 143.164062 L 175.597656 143.175781 L 175.503906 143.449219 L 175.476562 143.527344 L 175.378906 143.800781 L 175.367188 143.835938 L 175.261719 144.128906 L 175.25 144.167969 L 175.152344 144.4375 L 175.121094 144.511719 L 175.023438 144.777344 L 175.011719 144.8125 L 174.898438 145.109375 L 174.894531 145.113281 C 174.855469 145.214844 174.816406 145.316406 174.777344 145.417969 L 174.761719 145.457031 L 174.664062 145.710938 L 174.644531 145.753906 L 174.628906 145.796875 L 174.519531 146.074219 L 174.515625 146.082031 L 174.511719 146.085938 L 174.511719 146.089844 L 174.507812 146.097656 L 174.507812 146.105469 C 174.472656 146.1875 174.441406 146.265625 174.40625 146.347656 L 174.40625 146.351562 L 174.402344 146.355469 L 174.402344 146.363281 L 174.398438 146.371094 L 174.394531 146.375 L 174.386719 146.394531 L 174.375 146.429688 L 174.265625 146.6875 L 174.257812 146.703125 L 174.253906 146.714844 L 174.234375 146.765625 L 174.125 147.023438 L 174.121094 147.035156 L 174.113281 147.046875 L 173.992188 147.332031 L 173.984375 147.351562 L 173.980469 147.363281 L 173.859375 147.640625 L 173.847656 147.671875 L 173.835938 147.691406 L 173.714844 147.964844 L 173.707031 147.988281 L 173.691406 148.019531 L 173.578125 148.273438 L 173.5625 148.304688 L 173.546875 148.34375 L 173.4375 148.582031 L 173.421875 148.621094 L 173.398438 148.671875 L 173.289062 148.914062 L 173.273438 148.9375 L 173.246094 148.996094 L 173.171875 149.160156 L 173.128906 149.253906 L 173.09375 149.324219 L 172.988281 149.546875 L 172.96875 149.59375 L 172.832031 149.875 L 172.828125 149.890625 L 172.691406 150.171875 L 172.628906 150.296875 C 172.550781 150.457031 172.472656 150.617188 172.390625 150.78125 L 172.214844 151.132812 L 172.203125 151.152344 L 172.070312 151.421875 L 172.046875 151.46875 L 171.90625 151.742188 L 171.898438 151.753906 L 171.742188 152.0625 L 171.738281 152.066406 L 171.578125 152.375 Z M 159.773438 163.238281 C 159.773438 163.238281 147.878906 183.636719 149.054688 195.074219 C 149.828125 190.085938 151.976562 185.230469 154.3125 180.875 C 155.996094 177.738281 157.855469 174.683594 159.773438 171.664062 L 159.847656 171.542969 L 159.871094 171.507812 L 159.894531 171.46875 L 159.96875 171.351562 L 159.992188 171.320312 L 160.066406 171.195312 L 160.085938 171.167969 L 160.132812 171.09375 L 160.167969 171.042969 L 160.265625 170.886719 L 160.277344 170.871094 L 160.363281 170.730469 L 160.464844 170.578125 L 160.464844 170.574219 L 160.5625 170.421875 L 160.652344 170.277344 L 160.65625 170.273438 L 160.660156 170.265625 L 160.703125 170.199219 L 160.761719 170.113281 L 160.847656 169.976562 L 160.859375 169.957031 L 160.957031 169.804688 L 160.992188 169.753906 L 161.039062 169.679688 L 161.058594 169.648438 L 161.132812 169.53125 L 161.15625 169.492188 L 161.230469 169.378906 L 161.257812 169.339844 L 161.277344 169.304688 L 161.355469 169.183594 L 161.421875 169.082031 L 161.457031 169.03125 L 161.554688 168.875 L 161.566406 168.859375 L 161.613281 168.785156 L 161.65625 168.722656 L 161.707031 168.636719 L 161.753906 168.566406 L 161.804688 168.488281 L 161.851562 168.414062 L 161.855469 168.410156 L 161.953125 168.257812 L 161.996094 168.191406 L 162.140625 167.96875 L 162.152344 167.949219 L 162.1875 167.894531 L 162.253906 167.792969 L 162.285156 167.746094 L 162.351562 167.640625 L 162.378906 167.597656 L 162.429688 167.523438 L 162.453125 167.484375 L 162.570312 167.300781 L 162.652344 167.175781 L 162.714844 167.074219 L 162.75 167.023438 L 162.761719 167 L 162.847656 166.867188 L 162.859375 166.851562 L 162.949219 166.714844 L 162.957031 166.703125 L 163.003906 166.628906 L 163.050781 166.558594 L 163.148438 166.40625 L 163.25 166.25 L 163.445312 165.941406 L 163.546875 165.789062 L 163.644531 165.632812 L 163.746094 165.480469 L 163.84375 165.324219 L 163.945312 165.171875 L 164.042969 165.019531 L 164.101562 164.921875 L 164.242188 164.710938 L 164.292969 164.625 L 164.339844 164.554688 L 164.4375 164.398438 L 164.539062 164.246094 L 164.636719 164.089844 L 164.734375 163.9375 L 164.832031 163.78125 L 164.863281 163.734375 L 164.929688 163.628906 L 165.03125 163.472656 L 165.054688 163.4375 L 165.128906 163.320312 L 165.226562 163.164062 L 165.242188 163.140625 L 165.324219 163.011719 L 165.421875 162.855469 L 165.429688 162.84375 L 165.519531 162.703125 L 165.617188 162.546875 L 165.617188 162.542969 L 165.714844 162.390625 L 165.804688 162.246094 L 165.8125 162.238281 L 165.910156 162.082031 L 165.992188 161.949219 L 166.007812 161.925781 L 166.101562 161.773438 L 166.101562 120.292969 L 150.003906 120.292969 L 150.003906 121 C 152.398438 121.546875 154.644531 123.105469 156.726562 125.660156 C 158.757812 128.160156 159.773438 133.292969 159.773438 141.085938 Z M 195.945312 201.03125 L 171.574219 201.03125 L 171.574219 177.445312 L 171.617188 177.371094 L 171.640625 177.332031 L 171.707031 177.222656 L 171.777344 177.109375 L 171.796875 177.074219 L 171.84375 176.996094 L 171.910156 176.882812 L 171.972656 176.777344 L 171.976562 176.773438 L 172.046875 176.660156 L 172.113281 176.546875 L 172.152344 176.480469 L 172.179688 176.4375 L 172.25 176.324219 L 172.316406 176.210938 L 172.332031 176.1875 L 172.386719 176.101562 L 172.453125 175.988281 L 172.511719 175.890625 L 172.519531 175.878906 L 172.589844 175.765625 L 172.65625 175.65625 L 172.691406 175.597656 L 172.726562 175.542969 L 172.792969 175.429688 L 172.863281 175.320312 L 172.871094 175.304688 L 172.929688 175.207031 L 173 175.097656 L 173.050781 175.011719 L 173.066406 174.988281 L 173.136719 174.875 L 173.203125 174.765625 L 173.230469 174.71875 L 173.273438 174.652344 L 173.339844 174.542969 L 173.410156 174.429688 L 173.414062 174.425781 L 173.59375 174.132812 L 173.613281 174.097656 L 173.683594 173.988281 L 173.75 173.878906 L 173.773438 173.839844 L 173.820312 173.765625 L 173.953125 173.546875 L 173.957031 173.546875 L 174.023438 173.4375 L 174.09375 173.324219 L 174.136719 173.257812 L 174.164062 173.214844 L 174.230469 173.105469 L 174.300781 172.996094 L 174.316406 172.964844 L 174.367188 172.882812 L 174.4375 172.773438 L 174.496094 172.675781 L 174.503906 172.664062 L 174.574219 172.554688 L 174.640625 172.445312 L 174.679688 172.386719 L 174.710938 172.335938 L 174.777344 172.226562 L 174.847656 172.117188 L 174.859375 172.097656 L 174.914062 172.003906 L 174.984375 171.894531 L 175.039062 171.808594 L 175.050781 171.785156 L 175.191406 171.566406 L 175.21875 171.519531 L 175.257812 171.457031 L 175.324219 171.347656 L 175.460938 171.128906 L 175.53125 171.019531 L 175.582031 170.941406 L 175.597656 170.910156 L 175.667969 170.804688 L 175.734375 170.695312 L 175.753906 170.664062 L 175.757812 170.65625 L 175.804688 170.585938 L 175.871094 170.476562 L 175.941406 170.367188 L 175.96875 170.316406 L 176 170.269531 L 176.03125 170.21875 L 176.0625 170.171875 L 176.074219 170.152344 L 176.09375 170.121094 L 176.125 170.074219 L 176.152344 170.023438 L 176.183594 169.976562 L 176.207031 169.9375 L 176.214844 169.925781 L 176.246094 169.875 L 176.277344 169.828125 L 176.308594 169.777344 L 176.339844 169.730469 L 176.34375 169.722656 L 176.367188 169.679688 L 176.398438 169.632812 L 176.429688 169.582031 L 176.460938 169.535156 L 176.476562 169.507812 L 176.492188 169.484375 L 176.523438 169.433594 L 176.554688 169.386719 L 176.582031 169.335938 L 176.613281 169.292969 L 176.613281 169.289062 L 176.644531 169.238281 L 176.675781 169.191406 L 176.738281 169.089844 L 176.769531 169.042969 L 176.800781 168.992188 L 176.828125 168.945312 L 176.859375 168.894531 L 176.882812 168.863281 L 176.890625 168.847656 L 176.921875 168.796875 L 176.953125 168.75 L 177.015625 168.648438 L 177.015625 168.644531 L 177.042969 168.601562 L 177.074219 168.550781 L 177.105469 168.503906 L 177.136719 168.453125 L 177.167969 168.40625 L 177.230469 168.304688 L 177.257812 168.257812 L 177.285156 168.214844 L 177.289062 168.207031 L 177.320312 168.160156 L 177.351562 168.109375 L 177.382812 168.0625 L 177.414062 168.011719 L 177.421875 168 L 177.445312 167.960938 L 177.472656 167.914062 L 177.503906 167.863281 L 177.535156 167.816406 L 177.554688 167.785156 L 177.566406 167.765625 L 177.597656 167.71875 L 177.628906 167.667969 L 177.660156 167.621094 L 177.6875 167.570312 L 177.71875 167.519531 L 177.75 167.472656 L 177.78125 167.421875 L 177.8125 167.375 L 177.824219 167.355469 L 177.84375 167.324219 L 177.875 167.277344 L 177.902344 167.226562 C 180.117188 163.679688 182.3125 160.113281 184.332031 156.457031 C 185.527344 154.289062 186.699219 152.039062 187.730469 149.730469 C 185.988281 163.425781 177.902344 176.496094 177.902344 176.496094 C 177.902344 181.472656 178.191406 183.46875 178.660156 187.378906 C 179.15625 191.519531 179.664062 193.851562 180.273438 194.492188 C 180.835938 195.078125 182.308594 195.402344 184.703125 195.402344 L 189.769531 195.402344 C 195.425781 195.402344 200.082031 194.503906 203.8125 192.71875 C 207.535156 190.9375 210.792969 187.429688 213.582031 182.195312 L 215.121094 182.195312 C 214.753906 184.644531 213.628906 188.507812 211.679688 193.785156 C 210.605469 196.699219 209.835938 199.117188 209.414062 201.03125 Z M 195.945312 201.03125 " fill-opacity="1" fill-rule="evenodd"/></g><g fill="#796647" fill-opacity="1"><g transform="translate(101.024002, 321.68028)"><g/></g></g><g fill="#796647" fill-opacity="1"><g transform="translate(108.524001, 321.68028)"><g><path d="M 5.84375 0.234375 C 8.148438 0.234375 9.910156 -1.089844 10.546875 -3.285156 L 9.4375 -3.285156 C 8.910156 -1.742188 7.570312 -0.78125 5.84375 -0.78125 C 3.628906 -0.78125 2.105469 -2.378906 2.105469 -4.699219 C 2.105469 -7.007812 3.628906 -8.601562 5.84375 -8.601562 C 7.460938 -8.601562 8.765625 -7.75 9.382812 -6.261719 L 10.453125 -6.261719 C 9.910156 -8.292969 8.078125 -9.621094 5.84375 -9.621094 C 3.03125 -9.621094 1.050781 -7.585938 1.050781 -4.699219 C 1.050781 -1.816406 3.03125 0.234375 5.84375 0.234375 Z M 5.84375 0.234375 "/></g></g></g><g fill="#796647" fill-opacity="1"><g transform="translate(122.69341, 321.68028)"><g><path d="M 1.871094 0 L 2.921875 0 L 2.921875 -13.429688 L 1.871094 -13.429688 Z M 1.871094 0 "/></g></g></g><g fill="#796647" fill-opacity="1"><g transform="translate(130.114489, 321.68028)"><g><path d="M 5.988281 0.234375 C 8.875 0.234375 10.90625 -1.796875 10.90625 -4.699219 C 10.90625 -7.585938 8.875 -9.621094 5.988281 -9.621094 C 3.085938 -9.621094 1.050781 -7.585938 1.050781 -4.699219 C 1.050781 -1.796875 3.085938 0.234375 5.988281 0.234375 Z M 2.105469 -4.699219 C 2.105469 -7.007812 3.683594 -8.601562 5.988281 -8.601562 C 8.277344 -8.601562 9.855469 -7.007812 9.855469 -4.699219 C 9.855469 -2.378906 8.277344 -0.78125 5.988281 -0.78125 C 3.683594 -0.78125 2.105469 -2.378906 2.105469 -4.699219 Z M 2.105469 -4.699219 "/></g></g></g><g fill="#796647" fill-opacity="1"><g transform="translate(144.701136, 321.68028)"><g><path d="M 5.679688 0 L 7.042969 0 L 7.042969 -1.015625 L 5.71875 -1.015625 C 4.300781 -1.015625 3.667969 -1.742188 3.667969 -3.285156 L 3.667969 -8.421875 L 6.914062 -8.421875 L 6.914062 -9.382812 L 3.667969 -9.382812 L 3.667969 -11.6875 L 2.832031 -11.6875 L 2.742188 -10.253906 C 2.667969 -9.566406 2.46875 -9.382812 1.761719 -9.382812 L 0.5625 -9.382812 L 0.5625 -8.421875 L 2.613281 -8.421875 L 2.613281 -3.25 C 2.613281 -1.125 3.683594 0 5.679688 0 Z M 5.679688 0 "/></g></g></g><g fill="#796647" fill-opacity="1"><g transform="translate(155.314982, 321.68028)"><g><path d="M 1.871094 0 L 2.921875 0 L 2.921875 -4.882812 C 2.921875 -7.132812 4.320312 -8.601562 6.296875 -8.601562 C 8.167969 -8.601562 9.3125 -7.296875 9.3125 -5.136719 L 9.3125 0 L 10.363281 0 L 10.363281 -5.226562 C 10.363281 -7.929688 8.875 -9.621094 6.441406 -9.621094 C 4.972656 -9.621094 3.667969 -8.964844 2.921875 -7.675781 L 2.921875 -13.429688 L 1.871094 -13.429688 Z M 1.871094 0 "/></g></g></g><g fill="#796647" fill-opacity="1"><g transform="translate(169.974199, 321.68028)"><g><path d="M 5.84375 0.234375 C 7.949219 0.234375 9.65625 -0.871094 10.382812 -2.667969 L 9.203125 -2.6875 C 8.585938 -1.46875 7.367188 -0.761719 5.84375 -0.761719 C 3.757812 -0.761719 2.304688 -2.140625 2.125 -4.265625 L 10.652344 -4.265625 C 10.726562 -7.441406 8.820312 -9.621094 5.863281 -9.621094 C 3.011719 -9.621094 1.050781 -7.605469 1.050781 -4.699219 C 1.050781 -1.777344 2.996094 0.234375 5.84375 0.234375 Z M 2.125 -5.191406 C 2.304688 -7.261719 3.773438 -8.621094 5.863281 -8.621094 C 7.914062 -8.621094 9.367188 -7.3125 9.621094 -5.191406 Z M 2.125 -5.191406 "/></g></g></g><g fill="#796647" fill-opacity="1"><g transform="translate(184.270592, 321.68028)"><g><path d="M 5.101562 0.234375 C 7.367188 0.234375 8.804688 -0.796875 8.804688 -2.378906 C 8.804688 -3.792969 7.621094 -4.738281 5.246094 -5.191406 C 3.15625 -5.589844 2.378906 -6.097656 2.378906 -7.023438 C 2.378906 -8.039062 3.320312 -8.675781 4.882812 -8.675781 C 6.515625 -8.675781 7.476562 -8.003906 7.585938 -6.769531 L 8.640625 -6.769531 C 8.496094 -8.566406 7.097656 -9.621094 4.882812 -9.621094 C 2.6875 -9.621094 1.324219 -8.640625 1.324219 -7.042969 C 1.324219 -5.609375 2.433594 -4.738281 4.882812 -4.320312 C 6.878906 -3.976562 7.769531 -3.375 7.769531 -2.394531 C 7.769531 -1.359375 6.769531 -0.726562 5.117188 -0.726562 C 3.320312 -0.726562 2.285156 -1.507812 2.179688 -2.832031 L 1.144531 -2.832031 C 1.214844 -0.960938 2.722656 0.234375 5.101562 0.234375 Z M 5.101562 0.234375 "/></g></g></g><g fill="#796647" fill-opacity="1"><g transform="translate(196.879909, 321.68028)"><g/></g></g><g fill="#796647" fill-opacity="1"><g transform="translate(204.373557, 321.68028)"><g><path d="M 5.101562 0.234375 C 7.367188 0.234375 8.804688 -0.796875 8.804688 -2.378906 C 8.804688 -3.792969 7.621094 -4.738281 5.246094 -5.191406 C 3.15625 -5.589844 2.378906 -6.097656 2.378906 -7.023438 C 2.378906 -8.039062 3.320312 -8.675781 4.882812 -8.675781 C 6.515625 -8.675781 7.476562 -8.003906 7.585938 -6.769531 L 8.640625 -6.769531 C 8.496094 -8.566406 7.097656 -9.621094 4.882812 -9.621094 C 2.6875 -9.621094 1.324219 -8.640625 1.324219 -7.042969 C 1.324219 -5.609375 2.433594 -4.738281 4.882812 -4.320312 C 6.878906 -3.976562 7.769531 -3.375 7.769531 -2.394531 C 7.769531 -1.359375 6.769531 -0.726562 5.117188 -0.726562 C 3.320312 -0.726562 2.285156 -1.507812 2.179688 -2.832031 L 1.144531 -2.832031 C 1.214844 -0.960938 2.722656 0.234375 5.101562 0.234375 Z M 5.101562 0.234375 "/></g></g></g><g fill="#796647" fill-opacity="1"><g transform="translate(216.982868, 321.68028)"><g><path d="M 1.871094 0 L 2.921875 0 L 2.921875 -4.882812 C 2.921875 -7.132812 4.320312 -8.601562 6.296875 -8.601562 C 8.167969 -8.601562 9.3125 -7.296875 9.3125 -5.136719 L 9.3125 0 L 10.363281 0 L 10.363281 -5.226562 C 10.363281 -7.929688 8.875 -9.621094 6.441406 -9.621094 C 4.972656 -9.621094 3.667969 -8.964844 2.921875 -7.675781 L 2.921875 -13.429688 L 1.871094 -13.429688 Z M 1.871094 0 "/></g></g></g><g fill="#796647" fill-opacity="1"><g transform="translate(231.642085, 321.68028)"><g><path d="M 5.988281 0.234375 C 8.875 0.234375 10.90625 -1.796875 10.90625 -4.699219 C 10.90625 -7.585938 8.875 -9.621094 5.988281 -9.621094 C 3.085938 -9.621094 1.050781 -7.585938 1.050781 -4.699219 C 1.050781 -1.796875 3.085938 0.234375 5.988281 0.234375 Z M 2.105469 -4.699219 C 2.105469 -7.007812 3.683594 -8.601562 5.988281 -8.601562 C 8.277344 -8.601562 9.855469 -7.007812 9.855469 -4.699219 C 9.855469 -2.378906 8.277344 -0.78125 5.988281 -0.78125 C 3.683594 -0.78125 2.105469 -2.378906 2.105469 -4.699219 Z M 2.105469 -4.699219 "/></g></g></g><g fill="#796647" fill-opacity="1"><g transform="translate(246.228735, 321.68028)"><g><path d="M 6.878906 0.234375 C 9.726562 0.234375 11.6875 -1.851562 11.6875 -4.699219 C 11.6875 -7.550781 9.726562 -9.621094 6.878906 -9.621094 C 5.117188 -9.621094 3.683594 -8.820312 2.867188 -7.515625 L 2.757812 -9.382812 L 1.871094 -9.382812 L 1.871094 3.628906 L 2.921875 3.628906 L 2.921875 -1.777344 C 3.757812 -0.542969 5.15625 0.234375 6.878906 0.234375 Z M 2.886719 -4.699219 C 2.886719 -6.988281 4.464844 -8.601562 6.769531 -8.601562 C 9.074219 -8.601562 10.636719 -6.988281 10.636719 -4.699219 C 10.636719 -2.394531 9.074219 -0.78125 6.769531 -0.78125 C 4.464844 -0.78125 2.886719 -2.394531 2.886719 -4.699219 Z M 2.886719 -4.699219 "/></g></g></g><g fill="#796647" fill-opacity="1"><g transform="translate(261.606022, 321.68028)"><g/></g></g><g fill="#796647" fill-opacity="1"><g transform="translate(269.09967, 321.68028)"><g/></g></g><g fill="#796647" fill-opacity="1"><g transform="translate(74.957548, 297.403456)"><g><path d="M 2.652344 0 L 11.398438 0 C 18.375 0 23.050781 -4.453125 23.050781 -11.050781 C 23.050781 -17.617188 18.375 -22.101562 11.398438 -22.101562 L 2.652344 -22.101562 Z M 7.671875 -4.609375 L 7.671875 -17.492188 L 11.242188 -17.492188 C 15.21875 -17.492188 17.902344 -14.933594 17.902344 -11.050781 C 17.902344 -7.167969 15.21875 -4.609375 11.304688 -4.609375 Z M 7.671875 -4.609375 "/></g></g></g><g fill="#796647" fill-opacity="1"><g transform="translate(103.908993, 297.403456)"><g><path d="M 2.398438 0 L 7.199219 0 L 7.199219 -16.578125 L 2.398438 -16.578125 Z M 1.703125 -21.945312 C 1.703125 -20.175781 2.96875 -18.945312 4.800781 -18.945312 C 6.628906 -18.945312 7.894531 -20.175781 7.894531 -21.945312 C 7.894531 -23.710938 6.628906 -24.945312 4.800781 -24.945312 C 2.96875 -24.945312 1.703125 -23.710938 1.703125 -21.945312 Z M 1.703125 -21.945312 "/></g></g></g><g fill="#796647" fill-opacity="1"><g transform="translate(118.085533, 297.403456)"><g><path d="M 2.398438 0 L 7.199219 0 L 7.199219 -7.324219 C 7.199219 -10.894531 8.871094 -12.21875 11.621094 -12.21875 L 13.449219 -12.21875 L 13.449219 -16.578125 L 11.652344 -16.578125 C 9.21875 -16.578125 7.671875 -15.914062 6.597656 -14.367188 L 5.96875 -16.578125 L 2.398438 -16.578125 Z M 2.398438 0 "/></g></g></g><g fill="#796647" fill-opacity="1"><g transform="translate(137.187037, 297.403456)"><g><path d="M 10.386719 0 L 13.417969 0 L 13.417969 -4.167969 L 11.429688 -4.167969 C 9.535156 -4.167969 8.652344 -5.082031 8.652344 -7.007812 L 8.652344 -12.660156 L 13.199219 -12.660156 L 13.199219 -16.578125 L 8.652344 -16.578125 L 8.652344 -20.871094 L 4.925781 -20.871094 L 4.640625 -18.722656 C 4.390625 -17.019531 3.914062 -16.578125 2.117188 -16.578125 L 0.632812 -16.578125 L 0.632812 -12.660156 L 3.851562 -12.660156 L 3.851562 -6.285156 C 3.851562 -2.242188 6.1875 0 10.386719 0 Z M 10.386719 0 "/></g></g></g><g fill="#796647" fill-opacity="1"><g transform="translate(156.509527, 297.403456)"><g><path d="M 2.460938 6.316406 L 4.703125 6.316406 C 8.558594 6.316406 10.167969 5.367188 11.523438 1.957031 L 18.914062 -16.578125 L 13.765625 -16.578125 L 11.554688 -10.546875 L 10.039062 -6.316406 L 5.589844 -16.578125 L 0.285156 -16.578125 L 7.734375 -0.535156 L 7.546875 0.03125 C 6.976562 1.671875 6.316406 2.179688 4.355469 2.179688 L 2.460938 2.179688 Z M 2.460938 6.316406 "/></g></g></g><g fill="#796647" fill-opacity="1"><g transform="translate(180.251861, 297.403456)"><g/></g></g><g fill="#796647" fill-opacity="1"><g transform="translate(192.250041, 297.403456)"><g><path d="M 10.292969 0.441406 C 14.964844 0.441406 18.472656 -2.304688 19.355469 -6.664062 L 14.683594 -6.664062 C 14.019531 -4.863281 12.378906 -3.695312 10.355469 -3.695312 C 7.765625 -3.695312 5.96875 -5.589844 5.96875 -8.304688 C 5.96875 -11.019531 7.765625 -12.914062 10.355469 -12.914062 C 12.25 -12.914062 13.796875 -11.902344 14.585938 -10.230469 L 19.199219 -10.230469 C 18.441406 -14.335938 14.902344 -17.019531 10.292969 -17.019531 C 4.988281 -17.019531 1.230469 -13.386719 1.230469 -8.304688 C 1.230469 -3.1875 4.957031 0.441406 10.292969 0.441406 Z M 10.292969 0.441406 "/></g></g></g><g fill="#796647" fill-opacity="1"><g transform="translate(217.349908, 297.403456)"><g><path d="M 10.546875 0.441406 C 16.039062 0.441406 19.828125 -3.125 19.828125 -8.304688 C 19.828125 -13.449219 16.039062 -17.019531 10.546875 -17.019531 C 5.019531 -17.019531 1.230469 -13.449219 1.230469 -8.304688 C 1.230469 -3.125 5.019531 0.441406 10.546875 0.441406 Z M 5.96875 -8.304688 C 5.96875 -11.019531 7.863281 -12.914062 10.546875 -12.914062 C 13.230469 -12.914062 15.09375 -11.019531 15.09375 -8.304688 C 15.09375 -5.589844 13.230469 -3.695312 10.546875 -3.695312 C 7.863281 -3.695312 5.96875 -5.589844 5.96875 -8.304688 Z M 5.96875 -8.304688 "/></g></g></g><g fill="#796647" fill-opacity="1"><g transform="translate(242.986469, 297.403456)"><g><path d="M 2.398438 0 L 7.199219 0 L 7.199219 -16.578125 L 2.398438 -16.578125 Z M 1.703125 -21.945312 C 1.703125 -20.175781 2.96875 -18.945312 4.800781 -18.945312 C 6.628906 -18.945312 7.894531 -20.175781 7.894531 -21.945312 C 7.894531 -23.710938 6.628906 -24.945312 4.800781 -24.945312 C 2.96875 -24.945312 1.703125 -23.710938 1.703125 -21.945312 Z M 1.703125 -21.945312 "/></g></g></g><g fill="#796647" fill-opacity="1"><g transform="translate(257.163008, 297.403456)"><g><path d="M 2.398438 0 L 7.199219 0 L 7.199219 -8.683594 C 7.199219 -11.304688 8.652344 -12.914062 10.863281 -12.914062 C 12.914062 -12.914062 14.144531 -11.460938 14.144531 -9.03125 L 14.144531 0 L 18.945312 0 L 18.945312 -9.535156 C 18.945312 -14.113281 16.324219 -17.019531 12 -17.019531 C 9.789062 -17.019531 7.800781 -16.261719 6.472656 -14.714844 L 5.96875 -16.578125 L 2.398438 -16.578125 Z M 2.398438 0 "/></g></g></g><g fill="#796647" fill-opacity="1"><g transform="translate(282.768006, 297.403456)"><g><path d="M 8.777344 0.441406 C 13.261719 0.441406 15.976562 -1.515625 15.976562 -4.671875 C 15.976562 -7.386719 13.957031 -9.125 9.851562 -9.945312 C 7.007812 -10.515625 6.125 -10.988281 6.125 -12 C 6.125 -12.976562 7.007812 -13.546875 8.429688 -13.546875 C 10.039062 -13.546875 11.019531 -12.820312 11.113281 -11.554688 L 15.691406 -11.554688 C 15.472656 -15.0625 12.882812 -17.019531 8.460938 -17.019531 C 4.011719 -17.019531 1.484375 -15.21875 1.484375 -12 C 1.484375 -9.25 3.378906 -7.609375 7.609375 -6.851562 C 10.167969 -6.410156 11.242188 -5.746094 11.242188 -4.703125 C 11.242188 -3.726562 10.355469 -3.125 8.839844 -3.125 C 7.074219 -3.125 6 -3.976562 5.96875 -5.335938 L 1.261719 -5.335938 C 1.261719 -1.863281 4.230469 0.441406 8.777344 0.441406 Z M 8.777344 0.441406 "/></g></g></g></svg>