<svg xmlns="http://www.w3.org/2000/svg" xmlns:xlink="http://www.w3.org/1999/xlink" width="300" zoomAndPan="magnify" viewBox="0 0 224.87999 127.500001" height="170" preserveAspectRatio="xMidYMid meet" version="1.0"><defs><filter x="0%" y="0%" width="100%" height="100%" id="16c9631303"><feColorMatrix values="0 0 0 0 1 0 0 0 0 1 0 0 0 0 1 0 0 0 1 0" color-interpolation-filters="sRGB"/></filter><g/><clipPath id="8b529dab81"><path d="M 0.378906 0 L 224.382812 0 L 224.382812 127.003906 L 0.378906 127.003906 Z M 0.378906 0 " clip-rule="nonzero"/></clipPath><clipPath id="045c2bed89"><path d="M 32.523438 44.347656 L 150.5625 44.347656 L 150.5625 93 L 32.523438 93 Z M 32.523438 44.347656 " clip-rule="nonzero"/></clipPath><mask id="a796c129cf"><g filter="url(#16c9631303)"><rect x="-22.487999" width="269.855988" fill="#000000" y="-12.75" height="153.000001" fill-opacity="0.9"/></g></mask><clipPath id="9e5717668d"><path d="M 0.523438 0.347656 L 118.5625 0.347656 L 118.5625 48.757812 L 0.523438 48.757812 Z M 0.523438 0.347656 " clip-rule="nonzero"/></clipPath><mask id="289b757af5"><g filter="url(#16c9631303)"><rect x="-81.473598" width="323.827186" fill="#000000" y="-72.05" height="183.600001" fill-opacity="0.9"/></g></mask><clipPath id="bcf60355a1"><path d="M 0.523438 1 L 118 1 L 118 48.757812 L 0.523438 48.757812 Z M 0.523438 1 " clip-rule="nonzero"/></clipPath><clipPath id="a949c9ba6d"><path d="M 0.523438 6 L 62 6 L 62 44 L 0.523438 44 Z M 0.523438 6 " clip-rule="nonzero"/></clipPath><clipPath id="48c79caba1"><path d="M 68 0.347656 L 118 0.347656 L 118 23 L 68 23 Z M 68 0.347656 " clip-rule="nonzero"/></clipPath><clipPath id="98e8412d34"><path d="M 81 5 L 118.5625 5 L 118.5625 19 L 81 19 Z M 81 5 " clip-rule="nonzero"/></clipPath><clipPath id="75aab3132e"><rect x="0" width="119" y="0" height="49"/></clipPath><clipPath id="63a0ae25b6"><rect x="0" width="119" y="0" height="49"/></clipPath><clipPath id="7b4aca0690"><path d="M 62 71 L 126 71 L 126 98.882812 L 62 98.882812 Z M 62 71 " clip-rule="nonzero"/></clipPath><mask id="b438c585c5"><g filter="url(#16c9631303)"><rect x="-22.487999" width="269.855988" fill="#000000" y="-12.75" height="153.000001" fill-opacity="0.8"/></g></mask><clipPath id="ee4444649e"><path d="M 0.0585938 0 L 63.886719 0 L 63.886719 27.882812 L 0.0585938 27.882812 Z M 0.0585938 0 " clip-rule="nonzero"/></clipPath><mask id="ac69e23a3f"><g filter="url(#16c9631303)"><rect x="-111.473598" width="323.827186" fill="#000000" y="-99.05" height="183.600001" fill-opacity="0.8"/></g></mask><clipPath id="00579ceae1"><path d="M 0.0585938 1 L 63.886719 1 L 63.886719 27.882812 L 0.0585938 27.882812 Z M 0.0585938 1 " clip-rule="nonzero"/></clipPath><clipPath id="e85c8149a9"><path d="M 0.0585938 1 L 63.886719 1 L 63.886719 27 L 0.0585938 27 Z M 0.0585938 1 " clip-rule="nonzero"/></clipPath><clipPath id="b6462108c6"><path d="M 0.0585938 0 L 63.886719 0 L 63.886719 25 L 0.0585938 25 Z M 0.0585938 0 " clip-rule="nonzero"/></clipPath><clipPath id="139fe4b6b8"><path d="M 1 0 L 63.886719 0 L 63.886719 23 L 1 23 Z M 1 0 " clip-rule="nonzero"/></clipPath><clipPath id="9bc403d864"><rect x="0" width="64" y="0" height="28"/></clipPath><clipPath id="6e46e18081"><rect x="0" width="64" y="0" height="28"/></clipPath><clipPath id="e66b819207"><path d="M 52 21 L 89 21 L 89 73 L 52 73 Z M 52 21 " clip-rule="nonzero"/></clipPath><clipPath id="a1f2f120cc"><path d="M 53.113281 20.867188 L 88.949219 22.0625 L 87.257812 72.835938 L 51.417969 71.640625 Z M 53.113281 20.867188 " clip-rule="nonzero"/></clipPath><clipPath id="7ded9d9921"><path d="M 53.113281 20.867188 L 88.949219 22.0625 L 87.257812 72.835938 L 51.417969 71.640625 Z M 53.113281 20.867188 " clip-rule="nonzero"/></clipPath><clipPath id="12f8415740"><path d="M 53.113281 20.867188 L 88.949219 22.0625 L 87.257812 72.835938 L 51.417969 71.640625 Z M 53.113281 20.867188 " clip-rule="nonzero"/></clipPath><clipPath id="dda31b57bc"><path d="M 85 33 L 89 33 L 89 37 L 85 37 Z M 85 33 " clip-rule="nonzero"/></clipPath><clipPath id="dfcc20a24a"><path d="M 53.113281 20.867188 L 88.949219 22.0625 L 87.257812 72.835938 L 51.417969 71.640625 Z M 53.113281 20.867188 " clip-rule="nonzero"/></clipPath><clipPath id="ca634f9344"><path d="M 53.113281 20.867188 L 88.949219 22.0625 L 87.257812 72.835938 L 51.417969 71.640625 Z M 53.113281 20.867188 " clip-rule="nonzero"/></clipPath><clipPath id="cdcee6cd0f"><path d="M 53.113281 20.867188 L 88.949219 22.0625 L 87.257812 72.835938 L 51.417969 71.640625 Z M 53.113281 20.867188 " clip-rule="nonzero"/></clipPath><clipPath id="83e16b6d0a"><path d="M 52 33 L 56 33 L 56 37 L 52 37 Z M 52 33 " clip-rule="nonzero"/></clipPath><clipPath id="5fe880567c"><path d="M 53.113281 20.867188 L 88.949219 22.0625 L 87.257812 72.835938 L 51.417969 71.640625 Z M 53.113281 20.867188 " clip-rule="nonzero"/></clipPath><clipPath id="e6b7a8ecfb"><path d="M 53.113281 20.867188 L 88.949219 22.0625 L 87.257812 72.835938 L 51.417969 71.640625 Z M 53.113281 20.867188 " clip-rule="nonzero"/></clipPath><clipPath id="758bda8175"><path d="M 53.113281 20.867188 L 88.949219 22.0625 L 87.257812 72.835938 L 51.417969 71.640625 Z M 53.113281 20.867188 " clip-rule="nonzero"/></clipPath><clipPath id="3a14e0a6e8"><path d="M 80 60 L 83 60 L 83 64 L 80 64 Z M 80 60 " clip-rule="nonzero"/></clipPath><clipPath id="72804b1a85"><path d="M 53.113281 20.867188 L 88.949219 22.0625 L 87.257812 72.835938 L 51.417969 71.640625 Z M 53.113281 20.867188 " clip-rule="nonzero"/></clipPath><clipPath id="494ee118f0"><path d="M 53.113281 20.867188 L 88.949219 22.0625 L 87.257812 72.835938 L 51.417969 71.640625 Z M 53.113281 20.867188 " clip-rule="nonzero"/></clipPath><clipPath id="387435d344"><path d="M 53.113281 20.867188 L 88.949219 22.0625 L 87.257812 72.835938 L 51.417969 71.640625 Z M 53.113281 20.867188 " clip-rule="nonzero"/></clipPath><clipPath id="8aa5242164"><path d="M 51 58 L 55 58 L 55 61 L 51 61 Z M 51 58 " clip-rule="nonzero"/></clipPath><clipPath id="979b85205b"><path d="M 53.113281 20.867188 L 88.949219 22.0625 L 87.257812 72.835938 L 51.417969 71.640625 Z M 53.113281 20.867188 " clip-rule="nonzero"/></clipPath><clipPath id="aea1eed08d"><path d="M 53.113281 20.867188 L 88.949219 22.0625 L 87.257812 72.835938 L 51.417969 71.640625 Z M 53.113281 20.867188 " clip-rule="nonzero"/></clipPath><clipPath id="775ca75420"><path d="M 53.113281 20.867188 L 88.949219 22.0625 L 87.257812 72.835938 L 51.417969 71.640625 Z M 53.113281 20.867188 " clip-rule="nonzero"/></clipPath></defs><g clip-path="url(#8b529dab81)"><path fill="#ffffff" d="M 0.378906 0 L 224.5 0 L 224.5 127.003906 L 0.378906 127.003906 Z M 0.378906 0 " fill-opacity="1" fill-rule="nonzero"/><path fill="#fdfdfd" d="M 0.378906 0 L 224.5 0 L 224.5 127.003906 L 0.378906 127.003906 Z M 0.378906 0 " fill-opacity="1" fill-rule="nonzero"/></g><g clip-path="url(#045c2bed89)"><g mask="url(#a796c129cf)"><g transform="matrix(1, 0, 0, 1, 32, 44)"><g clip-path="url(#63a0ae25b6)"><g clip-path="url(#9e5717668d)"><g mask="url(#289b757af5)"><g transform="matrix(1, 0, 0, 1, 0, -0.000000000000021316)"><g clip-path="url(#75aab3132e)"><g clip-path="url(#bcf60355a1)"><path fill="#efcde3" d="M 91.203125 14.636719 C 90.980469 14.410156 90.714844 14.269531 90.40625 14.207031 C 90.042969 14.144531 89.675781 14.140625 89.3125 14.1875 C 88.5 14.300781 87.707031 14.476562 86.925781 14.722656 C 86.171875 14.933594 85.527344 15.128906 85.054688 15.234375 C 84.582031 15.339844 84.28125 15.339844 84.132812 15.253906 C 83.859375 15.160156 83.578125 15.140625 83.292969 15.191406 L 83.164062 15.191406 C 83.488281 16.089844 82.410156 13.140625 83.917969 17.222656 L 83.894531 17.222656 L 83.832031 17.074219 C 83.671875 16.644531 83.535156 16.210938 83.421875 15.769531 C 83.378906 15.65625 83.34375 15.542969 83.316406 15.425781 L 83.25 15.253906 L 83.25 15.214844 C 83.25 15.234375 83.207031 15.253906 83.1875 15.296875 C 82.960938 15.511719 82.707031 15.6875 82.433594 15.832031 C 82.046875 16.058594 81.644531 16.257812 81.230469 16.433594 L 80.089844 16.945312 L 79.898438 17.050781 L 79.746094 17.160156 C 79.59375 17.207031 79.433594 17.238281 79.273438 17.246094 C 79.117188 17.273438 78.960938 17.28125 78.800781 17.265625 L 78.4375 17.179688 C 78.222656 17.117188 78.136719 17.007812 78.199219 16.902344 C 78.523438 16.3125 78.796875 15.699219 79.015625 15.0625 C 79.339844 14.230469 79.703125 13.203125 80.046875 12.242188 C 80.757812 10.296875 81.402344 8.433594 81.144531 8.027344 L 80.992188 7.816406 L 80.929688 7.707031 L 80.886719 7.664062 L 80.863281 7.664062 L 80.820312 7.621094 C 80.542969 7.34375 80.261719 7.066406 79.960938 6.808594 C 79.660156 6.554688 78.78125 5.761719 78.179688 5.269531 C 77.011719 4.324219 75.742188 3.539062 74.375 2.917969 C 73.097656 2.347656 71.761719 1.972656 70.375 1.785156 C 69.070312 1.609375 67.765625 1.617188 66.464844 1.804688 L 65.625 1.933594 L 64.960938 2.085938 L 63.949219 2.382812 C 63.726562 2.460938 63.496094 2.507812 63.261719 2.53125 C 63.03125 2.546875 62.808594 2.511719 62.59375 2.425781 C 62.402344 2.363281 61.886719 2.960938 61.089844 3.730469 C 60.683594 4.117188 60.230469 4.542969 59.695312 4.96875 C 59.15625 5.398438 59.136719 5.398438 58.835938 5.589844 L 57.867188 6.191406 C 56.941406 6.636719 55.910156 6.851562 54.921875 7.128906 C 54.429688 7.269531 53.953125 7.441406 53.484375 7.644531 C 53.027344 7.855469 52.621094 8.132812 52.257812 8.476562 C 51.570312 9.035156 50.472656 9.71875 49.269531 10.507812 L 45.378906 13.074219 L 44.886719 13.417969 L 44.648438 13.589844 L 44.542969 13.652344 L 44.476562 13.714844 L 44.132812 13.972656 L 43.769531 14.25 L 42.351562 15.296875 C 41.46875 15.984375 40.714844 16.558594 40.222656 17.007812 C 38.375 18.71875 36.953125 19.894531 35.535156 20.730469 C 34.070312 21.578125 32.5 22.15625 30.828125 22.460938 C 29.367188 22.632812 28.230469 23.167969 27.113281 23.765625 L 25.433594 24.6875 C 24.84375 25.007812 24.234375 25.292969 23.609375 25.539062 C 22.363281 26.082031 21.160156 26.703125 19.996094 27.402344 C 18.878906 28.0625 17.761719 28.75 16.386719 29.476562 C 14.960938 29.957031 13.589844 30.570312 12.28125 31.3125 L 11.3125 31.914062 L 10.820312 32.253906 L 10.304688 32.640625 C 9.660156 33.152344 9.058594 33.667969 8.5 34.179688 C 8.242188 34.542969 8.027344 34.863281 8.003906 35.25 C 7.984375 35.632812 7.382812 36.039062 7.1875 36.339844 C 6.722656 36.578125 6.234375 36.761719 5.726562 36.894531 L 4.953125 37.085938 L 4.136719 37.300781 C 3.0625 37.601562 2.007812 37.984375 1.148438 38.796875 C 0.675781 39.226562 0.246094 40.316406 0.78125 40.703125 C 2.066406 41.644531 3.457031 42.394531 4.953125 42.945312 C 6.367188 43.472656 7.820312 43.835938 9.316406 44.039062 C 9.652344 44.082031 9.988281 44.097656 10.324219 44.078125 C 10.660156 44.070312 10.988281 44.027344 11.3125 43.953125 C 11.972656 43.777344 12.601562 43.535156 13.207031 43.226562 C 14.386719 42.605469 15.441406 41.8125 16.496094 41.234375 C 16.847656 41.042969 17.21875 40.902344 17.613281 40.808594 C 18.015625 40.738281 18.425781 40.703125 18.835938 40.703125 C 19.277344 40.703125 19.714844 40.746094 20.148438 40.828125 C 20.605469 40.914062 21.058594 41.027344 21.5 41.171875 C 23.308594 41.792969 25.113281 42.925781 26.722656 44.144531 C 27.949219 45.105469 29.28125 46.496094 30.59375 47.457031 C 31.90625 48.421875 33.128906 48.976562 34.289062 48.226562 C 34.96875 47.726562 35.597656 47.167969 36.179688 46.558594 C 36.847656 45.917969 37.386719 45.320312 37.988281 44.742188 C 39.167969 43.632812 40.5 42.710938 42.308594 42.605469 C 44.886719 42.605469 46.992188 42.777344 49.269531 42.328125 C 49.996094 42.382812 50.722656 42.355469 51.441406 42.242188 C 52.007812 41.921875 52.59375 41.652344 53.203125 41.429688 L 54.105469 41.085938 L 54.558594 40.894531 L 54.835938 40.765625 L 55.136719 40.617188 L 55.289062 40.550781 L 55.265625 40.550781 L 55.265625 40.421875 C 55.230469 40.3125 55.203125 40.199219 55.179688 40.082031 C 55.117188 39.804688 55.03125 39.355469 54.921875 38.648438 C 54.921875 38.476562 54.972656 38.320312 55.074219 38.179688 C 55.128906 38.113281 55.191406 38.066406 55.265625 38.027344 C 55.359375 37.929688 55.433594 37.816406 55.480469 37.6875 L 55.824219 36.660156 C 55.933594 36.300781 56.0625 35.953125 56.210938 35.613281 C 56.28125 35.445312 56.359375 35.28125 56.449219 35.121094 L 56.707031 34.628906 C 57.039062 34.027344 57.453125 33.496094 57.953125 33.023438 C 58.347656 32.632812 58.804688 32.339844 59.328125 32.148438 C 59.785156 32.003906 60.242188 31.988281 60.703125 32.105469 C 60.957031 32.167969 61.199219 32.253906 61.433594 32.363281 L 61.605469 32.449219 C 61.671875 32.46875 61.691406 32.46875 61.84375 32.597656 C 62.105469 32.761719 62.355469 32.941406 62.59375 33.132812 C 63.648438 33.902344 64.722656 34.757812 65.882812 35.742188 C 66.3125 36.0625 67 37.300781 67.925781 38.648438 L 68.65625 39.652344 C 68.894531 39.996094 69.152344 40.316406 69.386719 40.617188 C 69.625 40.914062 69.882812 41.214844 70.097656 41.472656 L 70.398438 41.8125 L 70.527344 41.964844 L 70.65625 42.113281 C 71.988281 43.4375 73.859375 44.058594 75.640625 44.164062 C 77.324219 44.238281 78.953125 43.96875 80.519531 43.351562 C 82.625 42.304688 84.5625 41.277344 86.601562 40.1875 L 87.375 39.78125 L 87.761719 39.566406 L 88.148438 39.332031 L 88.945312 38.90625 L 89.785156 38.414062 L 90.191406 38.15625 L 90.621094 37.898438 L 91.074219 37.621094 L 91.289062 37.492188 L 91.460938 37.367188 L 92.148438 36.851562 L 92.8125 36.339844 C 93.472656 36.015625 94.160156 35.773438 94.878906 35.613281 C 95.601562 35.476562 96.289062 35.242188 96.941406 34.90625 C 98.148438 33.980469 99.09375 32.839844 99.777344 31.484375 C 100.101562 30.886719 100.359375 30.308594 100.636719 29.773438 C 100.707031 29.628906 100.785156 29.484375 100.875 29.347656 L 101.132812 28.917969 C 101.304688 28.621094 101.496094 28.363281 101.691406 28.085938 C 102.984375 26.890625 104.179688 25.609375 105.28125 24.238281 C 106.03125 23.253906 106.417969 22.589844 106.613281 22.121094 C 107 21.199219 106.65625 21.09375 106.871094 21.070312 C 107.578125 20.496094 108.804688 21.542969 109.921875 21.09375 C 111.039062 20.644531 111.921875 18.742188 112.136719 17.394531 C 112.523438 15.511719 113.015625 13.523438 113.875 11.878906 C 114.738281 10.230469 116.027344 8.882812 117.917969 8.347656 C 117.53125 8.222656 117.1875 7.898438 116.949219 8.007812 C 114.328125 8.796875 111.640625 9.160156 109.128906 9.761719 C 106.613281 10.359375 104.226562 11.171875 102.164062 12.925781 C 101.882812 13.417969 101.582031 14.101562 101.109375 14.527344 C 100.269531 15.175781 99.480469 15.878906 98.746094 16.644531 C 98.402344 16.921875 97.84375 17.03125 97.175781 17.007812 C 96.4375 16.964844 95.714844 16.835938 95.007812 16.625 C 93.457031 16.175781 91.933594 15.363281 91.203125 14.636719 Z M 91.203125 14.636719 " fill-opacity="1" fill-rule="nonzero"/></g><g clip-path="url(#a949c9ba6d)"><path fill="#de92c1" d="M 16.496094 41.152344 C 15.441406 41.726562 14.386719 42.519531 13.207031 43.117188 C 12.609375 43.429688 11.988281 43.671875 11.335938 43.84375 C 11.011719 43.925781 10.679688 43.976562 10.347656 43.996094 C 10.003906 44 9.660156 43.988281 9.316406 43.953125 C 7.828125 43.746094 6.382812 43.382812 4.972656 42.859375 C 3.480469 42.300781 2.09375 41.550781 0.804688 40.617188 C 0.265625 40.210938 0.695312 39.121094 1.171875 38.691406 C 2.03125 37.898438 3.082031 37.515625 4.15625 37.214844 L 4.953125 37.003906 L 5.359375 36.894531 L 5.726562 36.808594 C 6.234375 36.675781 6.722656 36.492188 7.1875 36.253906 C 7.382812 35.953125 7.984375 35.546875 8.003906 35.164062 C 8.027344 34.777344 8.261719 34.4375 8.5 34.09375 C 9.078125 33.542969 9.6875 33.019531 10.324219 32.535156 L 10.839844 32.167969 L 11.097656 32 L 11.335938 31.828125 L 12.324219 31.230469 C 13.625 30.484375 14.988281 29.871094 16.40625 29.390625 C 17.785156 28.664062 18.921875 28 20.039062 27.335938 C 21.199219 26.636719 22.394531 26.007812 23.628906 25.457031 C 24.261719 25.222656 24.871094 24.945312 25.457031 24.621094 L 27.132812 23.703125 C 28.25 23.082031 29.410156 22.570312 30.871094 22.398438 C 32.722656 21.992188 34.160156 21.5 35.578125 20.664062 C 36.996094 19.832031 38.394531 18.632812 40.265625 16.945312 C 40.757812 16.496094 41.511719 15.898438 42.394531 15.234375 L 43.8125 14.1875 L 44.175781 13.910156 L 44.5 13.652344 L 44.585938 13.589844 L 44.714844 13.503906 L 44.949219 13.332031 L 45.445312 13.011719 C 46.753906 12.113281 48.109375 11.214844 49.335938 10.421875 C 50.558594 9.632812 51.65625 8.96875 52.363281 8.414062 C 52.726562 8.066406 53.132812 7.789062 53.589844 7.578125 C 54.054688 7.363281 54.535156 7.191406 55.03125 7.066406 C 56.019531 6.789062 57.027344 6.597656 57.976562 6.148438 L 58.191406 6.339844 C 58.363281 6.488281 58.597656 6.679688 58.898438 6.980469 C 59.199219 7.28125 60.425781 8.371094 61.542969 9.566406 L 60.574219 9.78125 L 59.652344 10.039062 C 59.328125 10.125 59.027344 10.253906 58.726562 10.359375 L 58.277344 10.53125 L 57.824219 10.722656 C 57.523438 10.851562 57.222656 10.957031 56.941406 11.109375 L 56.082031 11.535156 C 55.503906 11.855469 54.964844 12.15625 54.429688 12.519531 C 53.890625 12.882812 53.375 13.222656 52.882812 13.589844 C 52.386719 13.953125 51.914062 14.335938 51.441406 14.742188 C 50.539062 15.519531 49.679688 16.339844 48.863281 17.203125 C 48.066406 18.015625 47.316406 18.847656 46.648438 19.617188 C 45.980469 20.386719 45.316406 21.179688 44.671875 21.96875 C 43.382812 23.550781 42.113281 25.15625 40.910156 26.761719 C 38.71875 27.785156 36.566406 28.875 34.417969 30.011719 L 31.214844 31.722656 L 29.625 32.597656 L 28.015625 33.496094 C 25.886719 34.671875 23.824219 35.867188 21.867188 37.128906 C 20.898438 37.773438 19.953125 38.414062 19.050781 39.078125 L 17.71875 40.101562 L 17.546875 40.230469 L 17.417969 40.359375 L 17.117188 40.617188 L 16.816406 40.871094 Z M 16.496094 41.152344 " fill-opacity="0.9" fill-rule="nonzero"/></g><path fill="#e3a3cb" d="M 57.910156 8.882812 L 58.492188 8.648438 L 59.179688 8.433594 C 59.46875 8.339844 59.761719 8.261719 60.058594 8.199219 L 61.089844 7.984375 L 62.273438 7.835938 C 62.683594 7.835938 63.089844 7.816406 63.519531 7.835938 C 63.9375 7.859375 64.351562 7.898438 64.765625 7.964844 C 65.558594 8.085938 66.316406 8.3125 67.042969 8.648438 C 67.671875 8.9375 68.222656 9.328125 68.699219 9.824219 C 69.089844 10.25 69.304688 10.75 69.34375 11.320312 C 69.324219 11.96875 69.101562 12.539062 68.679688 13.03125 L 68.035156 13.375 L 66.335938 14.292969 C 64.613281 15.25 62.980469 16.339844 61.433594 17.566406 L 60.789062 18.140625 L 60.144531 18.761719 C 59.929688 18.957031 59.714844 19.191406 59.5 19.402344 L 58.898438 20.046875 C 58.105469 20.945312 57.371094 21.820312 56.726562 22.632812 C 55.460938 24.28125 54.558594 25.5625 53.71875 25.90625 C 53.71875 25.90625 53.097656 26.140625 52.363281 26.503906 C 51.625 26.871094 50.914062 27.292969 50.238281 27.765625 L 49.464844 27.679688 C 48.871094 27.617188 48.273438 27.609375 47.679688 27.65625 C 46.773438 27.714844 45.902344 27.925781 45.074219 28.300781 C 44.246094 28.671875 43.507812 29.175781 42.867188 29.816406 L 40.78125 31.378906 L 36.160156 34.800781 C 35.300781 35.441406 34.417969 36.039062 33.582031 36.617188 L 32.355469 37.429688 C 31.96875 37.6875 31.558594 37.921875 31.195312 38.136719 C 29.691406 38.992188 28.59375 39.417969 28.078125 39.078125 L 27.089844 39.417969 L 24.789062 40.101562 C 23.910156 40.339844 22.984375 40.574219 22.167969 40.722656 C 21.351562 40.871094 20.578125 40.957031 20.019531 40.851562 C 19.789062 40.726562 19.554688 40.621094 19.308594 40.53125 C 18.734375 40.324219 18.148438 40.167969 17.546875 40.058594 C 16.839844 39.910156 16.128906 39.910156 15.417969 40.058594 C 14.667969 40.21875 14.050781 40.59375 13.570312 41.191406 L 12.046875 41.597656 C 11 41.859375 9.941406 42.023438 8.863281 42.089844 C 7.8125 42.132812 6.84375 42.046875 6.371094 41.75 C 5.898438 41.449219 5.898438 40.9375 6.714844 40.101562 L 6.972656 39.71875 L 7.253906 39.289062 L 7.53125 38.796875 C 7.960938 38.09375 8.476562 37.214844 8.90625 36.660156 L 9.59375 36.125 L 11.574219 34.691406 L 12.261719 34.242188 L 12.648438 33.988281 L 13.011719 33.753906 L 14.625 32.8125 C 15.761719 32.191406 16.96875 31.570312 18.214844 30.992188 C 20.480469 29.949219 22.804688 29.035156 25.175781 28.257812 C 27.175781 27.613281 28.660156 27.25 29.066406 27.421875 C 29.066406 27.421875 30.464844 27.082031 32.550781 26.375 C 35.234375 25.476562 37.847656 24.40625 40.394531 23.167969 C 41.902344 22.441406 43.363281 21.628906 44.777344 20.730469 C 45.488281 20.28125 46.21875 19.789062 46.90625 19.277344 C 47.59375 18.761719 48.324219 18.140625 49.035156 17.523438 C 50.453125 16.28125 51.914062 14.890625 53.417969 13.4375 C 54.921875 11.984375 56.449219 10.488281 57.910156 8.882812 Z M 57.910156 8.882812 " fill-opacity="1" fill-rule="nonzero"/><path fill="#e9b8d7" d="M 58.511719 7.195312 L 58.621094 7.109375 L 58.941406 6.917969 C 59.222656 6.765625 59.609375 6.511719 60.125 6.273438 C 60.71875 6.011719 61.328125 5.792969 61.949219 5.613281 C 62.691406 5.375 63.453125 5.234375 64.230469 5.183594 C 65.953125 5.023438 67.566406 5.375 69.066406 6.230469 C 69.851562 6.675781 70.511719 7.261719 71.050781 7.984375 C 71.589844 8.703125 71.960938 9.503906 72.160156 10.378906 L 72.546875 11.023438 C 72.804688 11.40625 73.128906 11.984375 73.492188 12.667969 C 73.859375 13.351562 74.246094 14.164062 74.632812 14.957031 C 74.671875 15.066406 74.722656 15.175781 74.78125 15.277344 L 74.847656 15.425781 C 74.847656 15.449219 74.867188 15.46875 74.867188 15.492188 L 74.867188 15.554688 C 74.910156 15.703125 74.933594 15.875 74.976562 16.027344 L 75.019531 16.28125 L 75.019531 16.515625 L 75.082031 16.988281 C 75.210938 18.269531 75.277344 19.597656 75.0625 20.730469 C 74.988281 21.265625 74.8125 21.765625 74.523438 22.226562 C 74.238281 22.699219 73.835938 23.03125 73.320312 23.230469 L 73.128906 23.296875 C 72.949219 23.378906 72.761719 23.445312 72.566406 23.488281 C 71.871094 23.71875 71.160156 23.902344 70.441406 24.042969 L 68.914062 24.320312 L 68.054688 24.449219 L 67.625 24.515625 L 67.214844 24.601562 C 66.078125 24.8125 64.894531 25.070312 63.800781 25.371094 C 62.730469 25.648438 61.691406 26.011719 60.683594 26.460938 C 59.6875 26.890625 58.761719 27.4375 57.910156 28.105469 C 57.132812 28.703125 56.394531 29.34375 55.695312 30.03125 C 55.074219 30.609375 54.558594 31.078125 54.042969 31.355469 C 54.042969 31.355469 53.914062 31.398438 53.761719 31.761719 C 53.613281 32.128906 53.398438 32.8125 53.398438 34.050781 L 53.246094 34.480469 C 53.191406 34.605469 53.125 34.726562 53.054688 34.84375 C 53.050781 34.859375 53.042969 34.875 53.03125 34.886719 L 52.96875 34.929688 L 52.667969 35.121094 C 52.476562 35.210938 52.296875 35.320312 52.128906 35.441406 C 50.773438 36.191406 49.035156 36.746094 47.378906 35.761719 L 46.152344 35.613281 C 45.402344 35.527344 44.371094 35.441406 43.253906 35.421875 C 41.039062 35.398438 38.480469 35.699219 37.34375 36.722656 C 36.761719 36.53125 36.167969 36.417969 35.558594 36.382812 C 34.613281 36.316406 33.539062 36.488281 33.066406 37.386719 C 33.066406 37.386719 33.816406 36.617188 35.042969 35.503906 C 36.265625 34.394531 37.945312 32.960938 39.75 31.613281 C 41.554688 30.265625 43.46875 28.984375 45.144531 28.191406 C 46.820312 27.402344 48.238281 27.101562 48.96875 27.59375 L 49.3125 27.59375 L 49.765625 27.550781 L 50.066406 27.488281 L 50.28125 27.488281 C 51.054688 27.394531 51.757812 27.113281 52.386719 26.652344 C 53.226562 26.097656 54.171875 25.136719 55.523438 23.636719 C 56.210938 22.890625 57.007812 21.992188 57.953125 21.007812 C 58.210938 20.773438 58.449219 20.515625 58.707031 20.257812 L 59.523438 19.488281 C 60.082031 18.957031 60.703125 18.421875 61.347656 17.886719 L 61.519531 17.566406 L 61.949219 16.6875 C 62.402344 15.777344 62.722656 14.820312 62.917969 13.824219 C 63.03125 13.222656 63.066406 12.617188 63.027344 12.003906 C 63.007812 11.6875 62.957031 11.375 62.875 11.066406 C 62.792969 10.738281 62.679688 10.425781 62.53125 10.125 C 62.375 9.796875 62.179688 9.488281 61.949219 9.203125 C 61.699219 8.90625 61.417969 8.636719 61.113281 8.390625 C 60.75 8.117188 60.363281 7.882812 59.953125 7.6875 L 59.265625 7.410156 Z M 58.511719 7.195312 " fill-opacity="1" fill-rule="nonzero"/><g clip-path="url(#48c79caba1)"><path fill="#f4dfee" d="M 68.464844 0.757812 C 70.613281 0.480469 73 0.136719 75.382812 0.609375 C 76.117188 0.871094 76.796875 1.234375 77.425781 1.699219 C 78.113281 2.167969 78.824219 2.726562 79.488281 3.132812 C 79.90625 3.4375 80.300781 3.773438 80.671875 4.136719 C 81.058594 4.5 81.402344 4.886719 81.746094 5.25 L 82.195312 5.804688 L 82.261719 5.890625 L 82.304688 5.976562 C 82.308594 6.023438 82.324219 6.066406 82.347656 6.105469 L 82.433594 6.382812 C 82.433594 6.425781 82.453125 6.46875 82.453125 6.511719 C 82.453125 6.546875 82.460938 6.582031 82.476562 6.617188 C 82.46875 7.285156 82.511719 7.945312 82.605469 8.605469 C 82.667969 9.140625 82.691406 9.546875 82.5625 9.890625 L 82.519531 9.953125 L 82.519531 9.996094 L 82.453125 10.082031 L 82.367188 10.296875 L 82.175781 10.722656 L 82.089844 10.9375 C 82.074219 11.007812 82.046875 11.070312 82.003906 11.128906 L 81.703125 11.878906 L 81.574219 12.261719 L 81.53125 12.347656 L 80.347656 15.535156 L 80.371094 15.535156 L 80.371094 15.46875 L 80.433594 15.253906 C 80.550781 14.976562 80.652344 14.691406 80.734375 14.402344 L 80.863281 13.972656 L 80.992188 13.566406 C 81.078125 13.289062 81.164062 13.03125 81.230469 12.777344 C 81.292969 12.519531 81.292969 12.496094 81.335938 12.390625 C 81.378906 12.285156 81.402344 12.15625 81.421875 12.027344 L 81.59375 11.34375 L 81.59375 11.214844 L 81.59375 11.363281 C 81.570312 11.519531 81.554688 11.675781 81.550781 11.835938 C 81.546875 12.007812 81.554688 12.175781 81.574219 12.347656 C 81.574219 12.539062 81.59375 12.734375 81.617188 12.945312 C 81.625 13.097656 81.667969 13.242188 81.746094 13.375 C 81.773438 13.472656 81.832031 13.550781 81.917969 13.609375 L 82.023438 13.351562 C 82.089844 13.277344 82.125 13.191406 82.132812 13.097656 L 82.605469 13.097656 C 82.625 13.074219 82.667969 13.097656 82.667969 13.074219 L 82.710938 13.074219 L 82.710938 13.203125 L 82.839844 13.78125 L 82.96875 14.335938 L 83.097656 14.914062 C 83.183594 15.234375 83.292969 15.554688 83.378906 15.855469 C 83.464844 16.152344 83.574219 16.496094 83.679688 16.796875 C 83.722656 16.957031 83.78125 17.113281 83.851562 17.265625 L 83.851562 17.308594 L 83.875 17.308594 C 83.140625 15.363281 85.464844 21.691406 82.261719 12.925781 L 82.367188 12.925781 C 82.597656 12.980469 82.820312 13.050781 83.035156 13.140625 C 83.886719 13.457031 84.761719 13.699219 85.65625 13.867188 C 86.839844 14.058594 88.257812 13.714844 89.828125 13.460938 C 91.007812 13.332031 92.148438 14.015625 93.265625 14.613281 C 94.382812 15.214844 95.457031 15.789062 96.53125 15.425781 C 98.292969 14.933594 99.433594 13.738281 100.550781 12.476562 C 101.667969 11.214844 102.765625 9.910156 104.464844 9.203125 C 106.546875 8.542969 108.289062 7.730469 110.546875 7.492188 C 112.351562 7.492188 114.027344 7.066406 115.875 6.894531 C 116.285156 6.832031 117.808594 7.367188 117.960938 7.644531 C 118.109375 7.921875 117.25 8.390625 116.972656 8.882812 C 116.15625 10.210938 114.5 9.246094 113.296875 9.226562 C 112.09375 9.203125 110.867188 10.617188 109.558594 11.363281 C 108.933594 11.554688 108.332031 11.554688 107.535156 11.472656 C 106.355469 11.277344 105.773438 12.476562 105.023438 13.417969 C 104.226562 14.742188 102.226562 14.613281 101.089844 15.597656 C 100.691406 15.90625 100.351562 16.269531 100.078125 16.6875 C 99.800781 17.09375 99.5625 17.542969 99.328125 17.949219 C 98.808594 18.761719 98.273438 19.46875 97.347656 19.597656 C 98.164062 19.511719 96.917969 20.453125 95.585938 21.199219 C 95.265625 21.394531 94.9375 21.574219 94.597656 21.734375 C 94.335938 21.882812 94.0625 22.011719 93.78125 22.121094 C 93.328125 22.3125 93.113281 22.3125 93.371094 22.011719 C 93.328125 22.207031 92.597656 21.882812 92.277344 21.542969 C 91.953125 21.199219 91.804688 20.921875 91.847656 20.730469 C 91.996094 19.980469 91.804688 19.234375 91.523438 18.507812 C 91.246094 17.777344 90.835938 17.03125 90.578125 16.304688 C 90.492188 16.261719 89.546875 16.753906 88.515625 17.136719 C 87.484375 17.523438 86.386719 17.714844 85.65625 17.371094 C 85.117188 17.070312 84.601562 16.738281 84.109375 16.367188 C 83.980469 16.304688 83.894531 16.21875 83.789062 16.152344 L 83.53125 15.960938 L 83.421875 15.898438 L 83.355469 15.855469 L 83.378906 15.855469 C 84.433594 18.785156 83.679688 16.667969 83.917969 17.308594 L 83.894531 17.308594 L 83.851562 17.179688 C 83.699219 16.796875 83.570312 16.402344 83.464844 16.003906 C 83.445312 15.960938 83.445312 15.898438 83.421875 15.855469 L 83.421875 15.789062 C 83.417969 15.820312 83.425781 15.851562 83.445312 15.875 L 83.507812 16.175781 C 83.550781 16.328125 83.5625 16.488281 83.550781 16.644531 C 83.398438 17.007812 83.214844 17.347656 82.992188 17.671875 C 82.875 17.839844 82.746094 17.996094 82.605469 18.140625 L 82.367188 18.398438 L 82.109375 18.65625 C 81.710938 19.003906 81.296875 19.332031 80.863281 19.640625 L 80.175781 20.066406 L 79.511719 20.453125 L 79.167969 20.621094 L 78.867188 20.773438 L 78.585938 20.878906 C 78.492188 20.933594 78.390625 20.96875 78.285156 20.988281 C 77.46875 21.199219 76.738281 21.136719 76.585938 20.945312 C 76.507812 20.765625 76.457031 20.582031 76.4375 20.386719 C 76.398438 20.167969 76.386719 19.945312 76.394531 19.726562 C 76.390625 19.285156 76.527344 18.894531 76.800781 18.546875 C 77.292969 17.828125 77.636719 17.042969 77.832031 16.195312 C 77.941406 15.832031 78.027344 15.46875 78.113281 15.105469 C 78.222656 14.707031 78.367188 14.324219 78.542969 13.953125 C 78.667969 13.726562 78.828125 13.527344 79.015625 13.351562 C 79.191406 13.171875 79.34375 12.972656 79.46875 12.753906 C 79.984375 11.554688 80.519531 10.144531 80.242188 9.589844 C 80.246094 9.550781 80.238281 9.515625 80.21875 9.484375 L 80.175781 9.355469 C 80.15625 9.269531 80.113281 9.203125 80.089844 9.117188 L 80.027344 9.011719 L 80.027344 8.949219 C 80.003906 8.925781 80.027344 8.90625 79.984375 8.863281 C 79.941406 8.820312 79.746094 8.605469 79.640625 8.457031 C 79.144531 7.921875 78.652344 7.386719 78.113281 6.875 C 77.167969 5.917969 76.09375 5.132812 74.890625 4.523438 C 72.898438 3.011719 70.757812 1.757812 68.464844 0.757812 Z M 68.464844 0.757812 " fill-opacity="1" fill-rule="nonzero"/></g><g clip-path="url(#98e8412d34)"><path fill="#faf2f8" d="M 82.023438 11.707031 C 82.210938 11.863281 82.417969 11.984375 82.648438 12.070312 C 83.164062 12.242188 83.695312 12.339844 84.238281 12.371094 C 84.90625 12.410156 85.722656 12.390625 86.496094 12.371094 C 87.167969 12.332031 87.84375 12.339844 88.515625 12.390625 C 89.25 12.453125 89.984375 12.550781 90.707031 12.691406 L 92.855469 13.03125 L 97.304688 13.695312 C 97.585938 13.652344 97.863281 13.503906 97.90625 13.265625 C 98.335938 11.429688 100.230469 11.085938 100.960938 9.761719 C 101.304688 9.226562 101.410156 8.476562 101.992188 8.15625 C 105.023438 6.445312 108.609375 5.761719 112.394531 5.71875 C 114.007812 5.71875 115.683594 6.167969 117.402344 6.359375 C 117.789062 6.511719 118.304688 6.554688 118.519531 6.894531 C 118.734375 7.238281 118.175781 7.324219 118.003906 7.601562 C 117.832031 7.878906 117.078125 7.472656 116.542969 7.535156 C 115.46875 7.578125 114.566406 8.199219 113.488281 8.09375 C 112.414062 7.984375 111.382812 7.921875 110.289062 8.070312 C 109.632812 8.21875 109.015625 8.460938 108.4375 8.796875 C 106.210938 9.691406 104.164062 10.890625 102.292969 12.390625 C 102.207031 13.824219 100.574219 14.015625 99.671875 14.613281 C 99.390625 14.765625 98.984375 14.742188 98.574219 14.847656 C 98.164062 15.109375 97.769531 15.394531 97.390625 15.703125 C 97.019531 16.015625 96.597656 16.113281 96.125 16.003906 C 95.070312 15.640625 94.039062 15.277344 93.027344 15 L 91.523438 14.636719 L 90.773438 14.464844 L 90.386719 14.421875 L 89.976562 14.378906 C 89.074219 14.316406 87.054688 14.484375 85.527344 14.359375 C 84.882812 14.332031 84.253906 14.222656 83.636719 14.035156 C 83.339844 13.945312 83.050781 13.820312 82.777344 13.671875 C 82.691406 13.628906 82.625 13.566406 82.5625 13.566406 C 83.164062 15.234375 81.207031 9.867188 83.917969 17.289062 L 83.894531 17.289062 L 83.851562 17.203125 L 83.789062 17.007812 C 83.722656 16.859375 83.679688 16.730469 83.636719 16.601562 C 83.59375 16.476562 83.488281 16.070312 83.402344 15.8125 C 83.230469 15.292969 83.09375 14.765625 82.992188 14.230469 L 82.796875 13.480469 C 82.796875 13.480469 82.820312 13.503906 82.796875 13.503906 C 82.730469 13.570312 82.652344 13.605469 82.554688 13.609375 C 82.460938 13.613281 82.378906 13.585938 82.304688 13.523438 C 82.292969 13.371094 82.308594 13.222656 82.347656 13.074219 C 82.347656 12.9375 82.371094 12.800781 82.410156 12.667969 C 82.433594 12.519531 82.433594 12.347656 82.453125 12.21875 C 82.476562 12.085938 82.492188 11.949219 82.496094 11.8125 L 82.496094 11.726562 L 82.476562 11.726562 L 82.476562 11.855469 C 82.496094 11.941406 82.496094 12.027344 82.519531 12.113281 C 82.539062 12.199219 82.648438 12.816406 82.734375 13.246094 L 82.863281 13.910156 C 82.9375 14.132812 82.992188 14.359375 83.035156 14.59375 L 83.230469 15.339844 C 83.292969 15.597656 83.402344 15.855469 83.464844 16.132812 C 83.535156 16.410156 83.621094 16.679688 83.722656 16.945312 C 83.765625 17.074219 83.832031 17.222656 83.875 17.371094 L 83.894531 17.371094 C 85.722656 22.441406 81.378906 10.488281 81.832031 11.707031 L 81.851562 11.707031 L 81.894531 11.75 Z M 82.023438 11.707031 " fill-opacity="1" fill-rule="nonzero"/></g></g></g></g></g></g></g></g></g><g clip-path="url(#7b4aca0690)"><g mask="url(#b438c585c5)"><g transform="matrix(1, 0, 0, 1, 62, 71)"><g clip-path="url(#6e46e18081)"><g clip-path="url(#ee4444649e)"><g mask="url(#ac69e23a3f)"><g transform="matrix(1, 0, 0, 1, 0, -0.000000000000014211)"><g clip-path="url(#9bc403d864)"><g clip-path="url(#00579ceae1)"><path fill="#d171ad" d="M 55.9375 14.921875 C 53.875 16.695312 52.238281 19.046875 50.027344 20.136719 C 49.726562 20.308594 49.296875 20.117188 48.886719 19.925781 C 48.480469 19.730469 47.617188 18.382812 47.082031 18.0625 C 42.566406 16.351562 38.25 16.332031 34.230469 17.828125 L 33.027344 18.191406 L 31.84375 18.46875 C 31.070312 18.640625 30.296875 18.769531 29.523438 18.898438 C 27.976562 19.152344 26.40625 19.324219 24.816406 19.539062 C 21.675781 19.925781 18.519531 20.4375 15.421875 21.71875 C 11.898438 23.152344 8.78125 25.484375 5.320312 27.40625 C 4.203125 27.835938 3.128906 28.070312 1.773438 27.578125 C 1.332031 27.238281 0.988281 26.816406 0.742188 26.316406 C 0.421875 25.738281 0.207031 25.078125 0.355469 24.476562 C 0.621094 23.359375 1.046875 22.304688 1.625 21.3125 C 3.96875 17.742188 5.621094 13.765625 7.988281 10.34375 C 10.351562 6.921875 14.089844 9.488281 17.273438 9.0625 C 20.453125 8.632812 22.515625 6.21875 25.394531 4.933594 C 26.210938 4.847656 27.242188 5.640625 27.933594 6.773438 C 29.285156 8.65625 29.308594 10.214844 30.683594 9.9375 C 32.421875 9.316406 33.605469 7.394531 35.433594 6.878906 C 38.636719 6.304688 41.6875 6.753906 44.546875 4.570312 C 46.738281 2.710938 48.996094 0.828125 51.808594 2.242188 C 54.066406 3.332031 55.980469 6.324219 58.019531 8.292969 C 59.460938 9.597656 60.902344 9.296875 62.449219 9.511719 C 62.75 9.554688 63.136719 10.128906 63.589844 10.515625 C 63.15625 12.035156 62.339844 13.1875 61.351562 13.894531 C 60.886719 14.25 60.371094 14.507812 59.804688 14.664062 L 59.417969 14.75 L 59.03125 14.792969 C 58.78125 14.8125 58.53125 14.8125 58.277344 14.792969 C 58 14.726562 57.785156 14.234375 57.546875 13.980469 C 56.839844 13.722656 56.429688 14.492188 55.9375 14.921875 Z M 55.9375 14.921875 " fill-opacity="0.8" fill-rule="nonzero"/></g><g clip-path="url(#e85c8149a9)"><path fill="#df95c3" d="M 56.085938 13.53125 C 54.023438 15.304688 52.390625 17.65625 50.175781 18.746094 C 49.855469 18.898438 49.445312 18.726562 49.039062 18.535156 C 48.628906 18.339844 47.769531 16.996094 47.210938 16.671875 C 42.71875 14.964844 38.378906 14.941406 34.402344 16.4375 C 33.617188 16.691406 32.820312 16.90625 32.015625 17.078125 C 31.242188 17.273438 30.46875 17.421875 29.695312 17.550781 C 28.167969 17.828125 26.621094 18.042969 25.074219 18.277344 C 21.976562 18.726562 18.863281 19.28125 15.765625 20.585938 C 12.242188 22.019531 9.148438 24.351562 5.707031 26.273438 C 4.589844 26.703125 3.515625 26.9375 2.183594 26.445312 C 1.558594 26.039062 0.0546875 25.527344 0.335938 24.351562 C 0.597656 23.230469 1.019531 22.175781 1.601562 21.183594 C 3.945312 17.613281 5.601562 13.617188 7.964844 10.214844 C 10.328125 6.816406 14.070312 9.359375 17.25 8.933594 C 20.429688 8.503906 22.515625 6.089844 25.375 4.804688 C 26.191406 4.71875 27.222656 5.511719 27.910156 6.644531 C 29.265625 8.527344 29.265625 10.085938 30.660156 9.808594 C 32.378906 9.191406 33.5625 7.265625 35.410156 6.753906 C 38.59375 6.175781 41.644531 6.625 44.503906 4.441406 C 46.714844 2.582031 48.953125 0.699219 51.765625 2.113281 C 54.023438 3.203125 55.9375 6.195312 58 8.164062 C 59.417969 9.46875 60.859375 9.191406 62.40625 9.382812 C 62.707031 9.425781 63.09375 10.003906 63.546875 10.386719 C 63.113281 11.90625 62.339844 12.738281 61.4375 13.125 C 60.972656 13.328125 60.484375 13.441406 59.976562 13.464844 L 59.203125 13.464844 L 58.453125 13.402344 C 58.171875 13.339844 57.957031 12.847656 57.699219 12.589844 C 57.011719 12.3125 56.601562 13.101562 56.085938 13.53125 Z M 56.085938 13.53125 " fill-opacity="0.8" fill-rule="nonzero"/></g><g clip-path="url(#b6462108c6)"><path fill="#e7b3d4" d="M 56.28125 10.878906 C 54.195312 12.652344 52.5625 15.003906 50.328125 16.097656 C 50.003906 16.246094 49.597656 16.054688 49.1875 15.882812 C 48.78125 15.710938 47.917969 14.34375 47.382812 14.023438 C 42.847656 12.289062 38.722656 11.007812 34.765625 12.527344 C 33.199219 13.039062 31.671875 13.402344 30.167969 13.746094 C 28.664062 14.085938 27.179688 14.386719 25.695312 14.683594 C 22.730469 15.328125 19.785156 16.054688 16.667969 17.335938 C 13.144531 18.769531 10.050781 21.121094 6.652344 23.046875 C 5.558594 23.472656 4.117188 24.714844 2.785156 24.242188 C 2.183594 23.835938 0.25 24.308594 0.550781 23.132812 C 0.796875 22.011719 1.210938 20.957031 1.796875 19.964844 C 4.140625 16.394531 5.773438 12.398438 8.136719 8.996094 C 10.5 5.597656 14.21875 8.121094 17.421875 7.714844 C 20.625 7.308594 22.710938 4.871094 25.566406 3.585938 C 26.40625 3.5 27.4375 4.292969 28.125 5.425781 C 28.8125 6.558594 29.09375 7.179688 29.371094 7.734375 C 29.652344 8.292969 29.972656 8.546875 30.660156 8.417969 C 32.378906 7.800781 33.542969 5.875 35.390625 5.363281 C 38.570312 4.785156 41.621094 5.234375 44.480469 3.054688 C 46.695312 1.191406 48.953125 -0.6875 51.765625 0.722656 C 54.023438 1.8125 55.957031 4.828125 58 6.773438 C 59.417969 8.078125 60.835938 7.777344 62.339844 7.992188 C 62.640625 8.035156 63.027344 8.613281 63.460938 8.996094 C 63.050781 10.515625 62.363281 11.007812 61.546875 11.09375 C 60.730469 11.179688 59.742188 10.859375 58.667969 10.75 C 58.386719 10.6875 58.171875 10.195312 57.914062 9.9375 C 57.226562 9.660156 56.796875 10.453125 56.28125 10.878906 Z M 56.28125 10.878906 " fill-opacity="0.8" fill-rule="nonzero"/></g><g clip-path="url(#139fe4b6b8)"><path fill="#f1d6e9" d="M 55.398438 6.453125 C 53.746094 7.84375 53.765625 10.835938 51.015625 12.160156 C 50.691406 12.3125 50.285156 12.121094 49.855469 11.925781 C 49.425781 11.734375 48.609375 10.386719 48.046875 10.066406 C 43.535156 8.355469 39.386719 7.074219 35.476562 8.570312 C 34.058594 9.042969 32.609375 9.398438 31.132812 9.640625 L 29.09375 9.9375 L 27.09375 10.195312 C 24.449219 10.558594 21.804688 10.984375 18.691406 12.269531 C 15.359375 13.578125 12.15625 15.148438 9.082031 16.972656 C 7.988281 17.402344 5.835938 20.652344 4.503906 20.179688 C 4.203125 19.988281 3.28125 20.757812 2.484375 21.421875 C 1.6875 22.082031 0.957031 22.683594 1.109375 22.082031 C 1.386719 20.90625 1.515625 20.222656 2.011719 19.410156 C 4.332031 15.839844 5.773438 12.398438 8.136719 8.996094 C 10.5 5.597656 14.390625 8.078125 17.59375 7.648438 C 20.796875 7.222656 22.859375 4.828125 25.738281 3.542969 C 26.554688 3.4375 27.609375 4.25 28.296875 5.382812 C 28.984375 6.515625 29.179688 6.453125 29.371094 6.324219 L 29.738281 6.003906 C 29.941406 5.824219 30.179688 5.710938 30.445312 5.660156 C 32.144531 5.042969 33.671875 5.726562 35.519531 5.234375 C 38.699219 4.65625 41.75 5.105469 44.609375 2.925781 C 46.824219 1.042969 49.082031 -0.816406 51.894531 0.59375 C 54.152344 1.683594 56.085938 4.679688 58.128906 6.644531 C 59.570312 7.929688 60.964844 7.648438 62.46875 7.84375 C 62.769531 7.886719 63.15625 8.460938 63.589844 8.847656 C 63.199219 10.367188 62.554688 10.558594 61.78125 10.324219 C 61.007812 10.085938 60.085938 9.445312 59.03125 9.339844 C 58.753906 9.273438 58.214844 7.929688 57.976562 7.648438 C 58.839844 7.972656 58.171875 7.671875 57.332031 7.285156 Z M 55.398438 6.453125 " fill-opacity="0.8" fill-rule="nonzero"/></g></g></g></g></g></g></g></g></g><g clip-path="url(#e66b819207)"><g clip-path="url(#a1f2f120cc)"><g clip-path="url(#7ded9d9921)"><g clip-path="url(#12f8415740)"><path fill="#2f2f2f" d="M 87.28125 45.746094 C 84.753906 44.664062 84.019531 48.078125 83.347656 49.6875 C 83.328125 49.6875 83.328125 49.707031 83.328125 49.722656 C 81.597656 51.007812 79.902344 52.238281 78.308594 53.613281 C 78.632812 52.558594 78.789062 51.480469 78.777344 50.378906 C 78.785156 49.460938 78.726562 48.546875 78.613281 47.640625 L 78.71875 47.539062 L 78.789062 47.457031 C 78.828125 47.40625 78.855469 47.347656 78.863281 47.285156 C 79.667969 45.851562 80.902344 44.515625 80.910156 42.78125 C 80.941406 41.320312 80.089844 39.449219 78.359375 39.738281 C 76.9375 39.980469 76.292969 41.320312 76.113281 42.585938 C 75.84375 44.433594 76.917969 45.757812 77.78125 47.265625 L 77.777344 47.320312 C 77.773438 47.402344 77.785156 47.484375 77.820312 47.5625 C 78.21875 49.859375 78.042969 52.113281 77.285156 54.320312 C 77.265625 54.394531 77.265625 54.46875 77.277344 54.542969 C 75.835938 55.859375 74.59375 57.34375 73.550781 58.992188 C 73.476562 58.644531 73.398438 58.316406 73.34375 57.96875 C 72.921875 56.082031 72.457031 54.089844 71.722656 52.292969 C 70.992188 50.496094 70.3125 49.152344 69.539062 47.59375 C 69.605469 47.542969 69.648438 47.476562 69.667969 47.390625 C 70.328125 44.148438 71.683594 41.648438 73.613281 39.011719 C 75.542969 36.375 76.597656 32.679688 76.628906 29.1875 C 76.683594 29.152344 76.71875 29.101562 76.734375 29.039062 C 77.085938 28.292969 77.742188 27.714844 78.144531 27.003906 C 78.546875 26.296875 78.644531 25.457031 78.671875 24.648438 C 78.699219 23.289062 78.050781 21.667969 76.429688 21.667969 C 75.550781 21.671875 74.765625 22.539062 74.53125 23.339844 C 73.878906 25.398438 75.523438 26.691406 75.789062 28.558594 C 75.796875 28.621094 75.820312 28.679688 75.851562 28.734375 C 75.882812 30.667969 75.597656 32.558594 74.988281 34.398438 C 74.800781 34.992188 74.570312 35.566406 74.296875 36.128906 C 73.921875 34.464844 73.179688 32.945312 72.839844 31.246094 C 73.148438 29.726562 73.511719 28.105469 72.925781 26.625 C 72.589844 25.785156 71.664062 24.65625 70.585938 25.050781 C 69.503906 25.441406 69.632812 27.289062 69.945312 28.210938 C 70.355469 29.390625 71.164062 30.347656 71.890625 31.351562 L 72.007812 31.460938 L 72 31.613281 C 72.011719 31.710938 72.0625 31.78125 72.148438 31.824219 C 72.585938 33.679688 73.496094 35.363281 73.6875 37.257812 C 73.140625 38.203125 72.527344 39.09375 71.839844 40.054688 C 70.472656 42.050781 69.535156 44.230469 69.023438 46.597656 C 68.375 45.335938 67.710938 44.078125 67.082031 42.816406 C 66.257812 41.191406 65.328125 39.613281 64.679688 37.921875 C 64.171875 36.597656 64.066406 35.183594 63.679688 33.847656 C 63.703125 33.832031 63.714844 33.808594 63.714844 33.78125 C 64.691406 31.886719 65.554688 29.75 64.785156 27.574219 C 64.3125 26.234375 62.777344 24.824219 61.234375 25.148438 C 60.054688 25.402344 59.535156 27.035156 59.496094 28.152344 C 59.414062 30.625 61.152344 32.179688 62.714844 33.832031 C 62.761719 33.886719 62.816406 33.921875 62.886719 33.941406 C 63.273438 35.191406 63.367188 36.554688 63.804688 37.808594 C 64.339844 39.320312 65.15625 40.742188 65.863281 42.175781 C 67.414062 45.253906 69.015625 48.28125 70.425781 51.425781 C 70.636719 51.878906 70.84375 52.351562 71.035156 52.820312 C 69.816406 51.582031 68.460938 50.511719 66.976562 49.605469 C 65.710938 48.859375 64.316406 48.3125 63.03125 47.636719 C 61.746094 46.957031 60.65625 46.59375 59.789062 45.753906 C 59.214844 44.328125 58.515625 42.636719 57.183594 41.746094 C 55.851562 40.859375 54.65625 41.183594 53.921875 42.515625 C 53.1875 43.851562 54.214844 45.121094 55.296875 45.707031 C 55.890625 46.027344 56.519531 46.246094 57.183594 46.375 C 57.507812 46.453125 59.414062 46.601562 59.320312 46.394531 C 59.363281 46.5 59.441406 46.566406 59.554688 46.589844 C 60.175781 47.074219 60.9375 47.410156 61.613281 47.761719 C 62.933594 48.457031 64.289062 49.085938 65.609375 49.769531 C 66.320312 50.132812 67 50.542969 67.652344 51.003906 C 67.011719 51.171875 66.429688 51.550781 65.835938 51.789062 C 65.242188 52.023438 64.132812 52.316406 63.246094 52.527344 C 61.683594 52.921875 60.375 52.910156 58.960938 52.503906 C 58.886719 52.457031 58.808594 52.4375 58.722656 52.445312 L 58.089844 52.25 C 58.078125 52.199219 58.058594 52.152344 58.027344 52.113281 C 57.132812 51.050781 56.390625 50.011719 54.992188 49.652344 C 53.882812 49.375 52.566406 50.125 52.386719 51.320312 C 52.210938 52.519531 53.4375 53.367188 54.496094 53.679688 C 55.929688 54.105469 57.152344 53.507812 58.503906 53.261719 C 58.621094 53.339844 58.746094 53.355469 58.882812 53.308594 C 60.101562 53.675781 61.339844 53.746094 62.59375 53.519531 C 63.550781 53.359375 64.488281 53.121094 65.40625 52.804688 C 66.277344 52.488281 67.320312 51.714844 68.230469 51.695312 C 68.324219 51.703125 68.40625 51.675781 68.476562 51.617188 C 69.550781 52.433594 70.523438 53.355469 71.398438 54.378906 C 71.46875 54.464844 71.558594 54.503906 71.667969 54.492188 C 72.535156 56.945312 73.152344 59.597656 73.140625 61.988281 L 73.136719 62.109375 C 71.988281 61.382812 70.632812 61.234375 69.277344 61.085938 C 69.261719 61.050781 69.246094 61.03125 69.246094 61 C 68.664062 59.945312 68.027344 58.910156 67.175781 58.039062 C 66.859375 57.738281 66.5 57.210938 66.113281 56.921875 C 66.113281 56.863281 66.097656 56.8125 66.066406 56.765625 C 66.066406 56.699219 66.050781 56.632812 66.019531 56.574219 C 65.601562 55.664062 65.105469 55.132812 64.117188 54.84375 C 63.125 54.550781 62.410156 54.820312 62.125 55.703125 C 61.835938 56.589844 62.300781 57.121094 63.066406 57.402344 C 63.472656 57.574219 63.957031 57.570312 64.402344 57.570312 C 64.851562 57.566406 65.25 57.527344 65.539062 57.589844 C 65.613281 57.667969 65.703125 57.699219 65.8125 57.683594 C 66.113281 57.96875 66.425781 58.394531 66.640625 58.625 C 67.292969 59.328125 67.847656 60.101562 68.300781 60.949219 C 67.273438 60.777344 66.164062 60.570312 65.179688 60.65625 C 65.160156 60.65625 65.160156 60.636719 65.144531 60.621094 C 64.226562 59.832031 62.921875 59.1875 61.699219 59.113281 C 60.480469 59.039062 59.476562 60.257812 59.539062 61.449219 C 59.597656 62.292969 60.292969 63.074219 61.136719 63.152344 C 62.695312 63.34375 63.824219 62.019531 65.183594 61.535156 C 65.253906 61.519531 65.289062 61.46875 65.34375 61.433594 C 66.308594 61.398438 67.453125 61.660156 68.378906 61.761719 C 69.304688 61.859375 69.835938 61.894531 70.589844 62.023438 C 69.34375 63.324219 67.523438 64.191406 65.804688 64.582031 L 65.753906 64.578125 C 65.707031 64.464844 65.625 64.40625 65.5 64.398438 C 64.578125 64.179688 63.484375 63.953125 62.605469 64.472656 C 61.726562 64.996094 61.226562 66.042969 61.699219 66.9375 C 62.167969 67.832031 63.457031 67.90625 64.363281 67.542969 C 64.871094 67.320312 65.34375 67.042969 65.652344 66.554688 C 65.960938 66.066406 65.972656 65.738281 66.089844 65.296875 C 67.964844 64.859375 69.925781 63.894531 71.25 62.441406 C 71.398438 62.4375 71.496094 62.367188 71.546875 62.226562 C 72.125 62.382812 72.644531 62.652344 73.105469 63.035156 C 72.898438 66.054688 72.269531 68.976562 71.210938 71.8125 C 71.039062 72.289062 71.808594 72.46875 71.980469 71.992188 C 73.078125 68.984375 73.578125 65.90625 73.855469 62.71875 C 73.90625 61.816406 73.863281 60.921875 73.722656 60.03125 C 73.796875 59.992188 73.855469 59.9375 73.898438 59.863281 C 76.308594 55.75 80.011719 53.136719 83.738281 50.371094 C 83.851562 50.371094 83.9375 50.324219 84 50.226562 L 84.015625 50.226562 C 85.148438 49.871094 86.933594 49.464844 87.621094 48.457031 C 88.3125 47.445312 88.402344 46.230469 87.28125 45.746094 Z M 78.460938 46.429688 C 78.414062 45.292969 79.023438 44.042969 79.316406 42.96875 C 79.535156 42.257812 79.558594 41.542969 79.390625 40.820312 C 79.496094 40.886719 79.585938 40.96875 79.65625 41.070312 C 80.976562 42.765625 79.464844 44.8125 78.460938 46.429688 Z M 78.792969 40.59375 C 79.207031 42.140625 78.492188 43.472656 78.117188 44.921875 C 78.105469 44.800781 78.085938 44.679688 78.058594 44.558594 C 77.917969 43.710938 77.554688 41.621094 78.183594 40.816406 C 78.246094 40.773438 78.289062 40.71875 78.3125 40.648438 C 78.46875 40.605469 78.632812 40.585938 78.792969 40.59375 Z M 76.929688 43.835938 C 76.800781 43.125 76.847656 42.199219 77.160156 41.554688 C 77.234375 41.394531 77.335938 41.253906 77.46875 41.136719 C 77.253906 41.902344 77.355469 42.917969 77.386719 43.539062 C 77.433594 44.21875 77.523438 44.894531 77.664062 45.5625 C 77.328125 45.023438 77.082031 44.449219 76.929688 43.835938 Z M 77.757812 25.734375 C 77.636719 26.332031 77.328125 26.804688 76.964844 27.273438 C 77.109375 26.550781 77.191406 25.820312 77.210938 25.082031 C 77.238281 24.292969 77.074219 23.546875 77.253906 22.796875 C 77.816406 23.484375 77.921875 24.984375 77.757812 25.734375 Z M 76.800781 22.472656 C 76.605469 23.082031 76.660156 23.53125 76.707031 24.257812 C 76.738281 24.992188 76.703125 25.726562 76.597656 26.453125 C 76.527344 25.9375 76.410156 25.414062 76.289062 24.84375 C 76.171875 24.273438 75.929688 23.234375 76.125 22.550781 C 76.339844 22.453125 76.566406 22.425781 76.800781 22.472656 Z M 75.5625 22.910156 C 75.554688 23.4375 75.601562 23.960938 75.699219 24.480469 C 75.855469 25.449219 76.101562 26.316406 76.140625 27.28125 C 75.5 25.796875 74.496094 23.90625 75.5625 22.910156 Z M 71.734375 26.152344 C 72.203125 26.597656 72.367188 27.34375 72.417969 27.949219 C 72.449219 28.589844 72.40625 29.222656 72.285156 29.851562 C 72.191406 29.503906 72.117188 29.140625 72.027344 28.8125 L 71.140625 25.910156 C 71.140625 25.894531 71.125 25.875 71.109375 25.859375 C 71.355469 25.875 71.566406 25.976562 71.734375 26.152344 Z M 70.472656 26.800781 C 70.464844 26.550781 70.53125 26.324219 70.667969 26.117188 L 71.628906 29.332031 C 71.691406 29.539062 71.738281 29.730469 71.78125 29.921875 C 71.109375 28.988281 70.46875 27.96875 70.472656 26.800781 Z M 64.246094 28.777344 C 64.386719 30.171875 63.964844 31.449219 63.390625 32.667969 C 63.417969 30.332031 63.21875 28.070312 62.292969 25.90625 C 63.328125 26.320312 64.152344 27.964844 64.246094 28.777344 Z M 61.726562 25.804688 C 61.722656 25.851562 61.726562 25.894531 61.738281 25.941406 C 62.6875 28.019531 62.871094 30.226562 62.882812 32.460938 C 61.792969 30.535156 61.109375 28.308594 61.320312 26.117188 C 61.335938 26.039062 61.316406 25.976562 61.257812 25.925781 C 61.40625 25.851562 61.5625 25.8125 61.726562 25.804688 Z M 60.378906 29.09375 C 60.246094 28.417969 60.257812 27.078125 60.78125 26.339844 C 60.628906 28.3125 61.164062 30.253906 62.035156 32.003906 C 61.253906 31.1875 60.597656 30.304688 60.378906 29.09375 Z M 55.050781 42.707031 C 55.894531 43.199219 56.707031 43.730469 57.496094 44.304688 C 57.945312 44.589844 58.34375 44.941406 58.683594 45.359375 C 58.089844 45.0625 57.40625 44.867188 56.832031 44.539062 C 55.96875 44.0625 55.421875 43.511719 54.742188 42.699219 C 54.796875 42.621094 54.855469 42.546875 54.921875 42.480469 C 54.914062 42.585938 54.957031 42.660156 55.050781 42.707031 Z M 55.867188 42.046875 C 56.636719 42.109375 57.269531 42.765625 57.679688 43.363281 C 57.859375 43.609375 58.023438 43.867188 58.171875 44.136719 L 57.886719 43.9375 C 57.050781 43.332031 56.183594 42.769531 55.289062 42.253906 L 55.222656 42.25 C 55.414062 42.113281 55.628906 42.046875 55.867188 42.046875 Z M 54.480469 43.359375 C 54.480469 43.308594 54.5 43.273438 54.5 43.242188 C 55.039062 43.886719 55.664062 44.433594 56.375 44.886719 C 56.929688 45.230469 57.613281 45.425781 58.238281 45.703125 C 56.539062 45.5625 54.304688 45.003906 54.480469 43.359375 Z M 54.382812 50.339844 C 54.832031 50.335938 55.492188 50.617188 55.863281 50.871094 C 56.25 51.15625 56.582031 51.492188 56.863281 51.882812 L 56.828125 51.882812 C 55.898438 51.207031 54.863281 50.804688 53.71875 50.679688 C 53.917969 50.519531 54.136719 50.40625 54.382812 50.339844 Z M 53.34375 51.09375 L 53.460938 51.152344 C 54.371094 51.242188 55.230469 51.507812 56.035156 51.941406 C 56.40625 52.160156 56.789062 52.535156 57.195312 52.789062 L 57.160156 52.789062 C 56.632812 52.730469 56.121094 52.617188 55.621094 52.445312 C 54.820312 52.210938 54.097656 51.722656 53.421875 51.253906 C 53.375 51.222656 53.324219 51.210938 53.269531 51.214844 C 53.285156 51.167969 53.308594 51.128906 53.34375 51.09375 Z M 53.878906 52.558594 C 53.566406 52.371094 53.351562 52.105469 53.234375 51.761719 C 54.007812 52.320312 54.816406 52.8125 55.757812 53.050781 L 55.773438 53.050781 C 55.082031 53.125 54.449219 52.960938 53.878906 52.558594 Z M 64.15625 55.6875 C 64.375 55.773438 64.570312 55.894531 64.746094 56.050781 C 64.203125 55.859375 63.621094 55.789062 63.074219 55.648438 C 63.089844 55.632812 63.089844 55.617188 63.109375 55.617188 C 63.40625 55.421875 63.851562 55.574219 64.15625 55.6875 Z M 62.976562 56.472656 C 62.894531 56.371094 62.851562 56.253906 62.851562 56.125 C 63.28125 56.257812 63.722656 56.363281 64.164062 56.445312 C 64.445312 56.507812 64.71875 56.597656 64.984375 56.710938 L 65.152344 56.785156 L 64.757812 56.773438 C 64.222656 56.789062 63.375 56.882812 62.976562 56.472656 Z M 60.628906 60.832031 C 61.558594 60.757812 62.449219 60.945312 63.339844 61.09375 C 63.105469 61.214844 62.859375 61.308594 62.605469 61.378906 C 61.839844 61.59375 61.191406 61.503906 60.441406 61.289062 L 60.355469 61.285156 C 60.375 61.117188 60.414062 60.953125 60.472656 60.792969 Z M 62.289062 60.042969 C 62.832031 60.1875 63.34375 60.394531 63.835938 60.664062 C 62.824219 60.507812 61.835938 60.253906 60.78125 60.304688 C 61.15625 59.921875 61.777344 59.90625 62.289062 60.042969 Z M 60.472656 61.875 C 60.472656 61.859375 60.472656 61.859375 60.457031 61.839844 C 61.015625 62.019531 61.585938 62.082031 62.171875 62.019531 C 62.640625 61.945312 63.128906 61.6875 63.601562 61.53125 C 62.476562 62.199219 61.109375 62.910156 60.472656 61.875 Z M 63.5 65.035156 C 63.960938 64.949219 64.417969 64.960938 64.875 65.066406 C 64.003906 65.464844 63.226562 66.007812 62.335938 66.375 L 62.320312 66.375 C 62.320312 66.320312 62.304688 66.269531 62.308594 66.21875 C 62.328125 65.566406 62.980469 65.140625 63.5 65.035156 Z M 64.425781 66.648438 C 64.007812 66.894531 63.015625 67.222656 62.5625 66.847656 C 63.074219 66.65625 63.570312 66.425781 64.046875 66.15625 C 64.425781 65.910156 64.820312 65.6875 65.222656 65.488281 C 65.085938 65.96875 64.917969 66.355469 64.425781 66.648438 Z M 86.605469 46.390625 L 86.882812 46.4375 C 86.519531 46.941406 85.859375 47.175781 85.445312 47.625 L 84.539062 48.523438 C 84.921875 47.402344 85.476562 46.269531 86.605469 46.390625 Z M 86.242188 48.53125 C 85.714844 48.78125 85.171875 49.003906 84.621094 49.199219 C 85.03125 48.746094 85.457031 48.367188 85.867188 47.949219 C 86.277344 47.535156 86.886719 47.261719 87.265625 46.792969 C 87.292969 46.929688 87.300781 47.066406 87.285156 47.207031 C 87.230469 47.859375 86.785156 48.253906 86.242188 48.53125 Z M 86.242188 48.53125 " fill-opacity="1" fill-rule="nonzero"/></g></g></g></g><g clip-path="url(#dda31b57bc)"><g clip-path="url(#dfcc20a24a)"><g clip-path="url(#ca634f9344)"><g clip-path="url(#cdcee6cd0f)"><path fill="#2f2f2f" d="M 86.28125 33.433594 L 86.195312 33.464844 L 86.175781 33.464844 C 85.476562 33.800781 84.890625 34.382812 85.1875 35.234375 C 85.488281 36.089844 86.28125 36.5625 87.046875 36.296875 C 87.8125 36.027344 88.234375 35.304688 87.984375 34.554688 C 87.734375 33.808594 87.042969 33.285156 86.28125 33.433594 Z M 86.820312 35.839844 C 86.335938 35.960938 85.714844 35.40625 85.644531 34.957031 C 85.574219 34.507812 86 34.144531 86.421875 33.933594 L 86.4375 33.9375 C 86.835938 33.847656 87.253906 34.238281 87.414062 34.554688 C 87.480469 34.675781 87.515625 34.808594 87.519531 34.945312 C 87.519531 35.085938 87.492188 35.21875 87.4375 35.34375 C 87.378906 35.46875 87.292969 35.574219 87.1875 35.664062 C 87.078125 35.75 86.957031 35.808594 86.820312 35.839844 Z M 86.820312 35.839844 " fill-opacity="1" fill-rule="nonzero"/></g></g></g></g><g clip-path="url(#83e16b6d0a)"><g clip-path="url(#5fe880567c)"><g clip-path="url(#e6b7a8ecfb)"><g clip-path="url(#758bda8175)"><path fill="#2f2f2f" d="M 53.921875 36.308594 C 54.730469 36.351562 55.398438 35.910156 55.496094 35.105469 C 55.589844 34.300781 55.21875 33.617188 54.5 33.402344 C 54.484375 33.386719 54.464844 33.402344 54.433594 33.402344 C 54.398438 33.398438 54.414062 33.382812 54.398438 33.382812 C 53.984375 33.371094 53.605469 33.355469 53.253906 33.601562 C 52.929688 33.820312 52.742188 34.125 52.691406 34.511719 C 52.578125 35.265625 53.082031 36.246094 53.921875 36.308594 Z M 53.226562 34.460938 C 53.382812 33.917969 53.898438 33.898438 54.382812 33.898438 C 54.808594 34.03125 54.996094 34.574219 54.984375 34.96875 C 54.96875 35.363281 54.507812 35.828125 53.972656 35.777344 C 53.441406 35.722656 53.054688 34.972656 53.226562 34.460938 Z M 53.226562 34.460938 " fill-opacity="1" fill-rule="nonzero"/></g></g></g></g><g clip-path="url(#3a14e0a6e8)"><g clip-path="url(#72804b1a85)"><g clip-path="url(#494ee118f0)"><g clip-path="url(#387435d344)"><path fill="#2f2f2f" d="M 82.464844 61.09375 C 81.980469 60.71875 81.367188 60.457031 80.835938 60.921875 C 80.304688 61.382812 80.175781 62.1875 80.621094 62.683594 C 80.722656 62.808594 80.847656 62.910156 80.988281 62.980469 C 81.132812 63.054688 81.285156 63.09375 81.445312 63.105469 C 81.605469 63.113281 81.761719 63.089844 81.910156 63.03125 C 82.0625 62.972656 82.191406 62.890625 82.308594 62.777344 C 82.699219 62.394531 82.894531 61.660156 82.550781 61.183594 C 82.53125 61.144531 82.503906 61.117188 82.464844 61.09375 Z M 82.03125 62.300781 C 81.976562 62.382812 81.90625 62.445312 81.824219 62.492188 C 81.738281 62.539062 81.648438 62.566406 81.550781 62.570312 C 81.457031 62.578125 81.363281 62.558594 81.273438 62.523438 C 81.1875 62.484375 81.109375 62.429688 81.046875 62.355469 C 80.816406 62.105469 80.902344 61.59375 81.148438 61.359375 C 81.398438 61.128906 81.808594 61.246094 82.109375 61.460938 C 82.414062 61.679688 82.191406 62.066406 82.03125 62.300781 Z M 82.03125 62.300781 " fill-opacity="1" fill-rule="nonzero"/></g></g></g></g><g clip-path="url(#8aa5242164)"><g clip-path="url(#979b85205b)"><g clip-path="url(#aea1eed08d)"><g clip-path="url(#775ca75420)"><path fill="#2f2f2f" d="M 53.898438 58.730469 C 53.425781 58.371094 52.800781 58.09375 52.265625 58.574219 C 51.734375 59.054688 51.621094 59.84375 52.054688 60.339844 C 52.15625 60.464844 52.277344 60.5625 52.425781 60.636719 C 52.570312 60.710938 52.722656 60.75 52.882812 60.757812 C 53.046875 60.769531 53.203125 60.742188 53.355469 60.6875 C 53.503906 60.628906 53.640625 60.542969 53.753906 60.429688 C 54.144531 60.046875 54.34375 59.3125 53.980469 58.820312 Z M 53.476562 59.957031 C 53.421875 60.035156 53.351562 60.101562 53.265625 60.148438 C 53.179688 60.195312 53.085938 60.21875 52.988281 60.226562 C 52.890625 60.230469 52.796875 60.214844 52.707031 60.175781 C 52.617188 60.136719 52.542969 60.082031 52.476562 60.007812 C 52.246094 59.742188 52.332031 59.230469 52.578125 59.015625 C 52.828125 58.800781 53.238281 58.882812 53.539062 59.117188 C 53.84375 59.347656 53.640625 59.722656 53.476562 59.957031 Z M 53.476562 59.957031 " fill-opacity="1" fill-rule="nonzero"/></g></g></g></g><g fill="#2f2f2f" fill-opacity="1"><g transform="translate(97.562056, 82.233632)"><g><path d="M 20.039062 -18.417969 C 20.238281 -18.253906 20.4375 -18.519531 20.4375 -18.71875 C 20.4375 -19.046875 20.964844 -19.214844 21.03125 -19.542969 C 21.066406 -19.675781 21.03125 -19.808594 21 -19.941406 C 20.570312 -21.164062 20.074219 -21.792969 15.90625 -22.683594 C 13.492188 -23.179688 6.050781 -22.652344 5.621094 -22.453125 C 5.355469 -22.355469 5.390625 -22.058594 5.589844 -22.15625 C 5.722656 -22.1875 5.722656 -22.15625 5.6875 -22.023438 C 5.589844 -21.691406 5.390625 -21.691406 5.523438 -21.328125 C 5.621094 -21.066406 5.984375 -20.402344 6.152344 -20.304688 C 6.316406 -20.238281 6.480469 -20.371094 6.613281 -20.4375 C 7.308594 -20.898438 9.457031 -21.132812 12.300781 -21.394531 C 16.238281 -21.757812 19.707031 -20.105469 20.074219 -19.675781 C 20.46875 -19.179688 19.773438 -18.617188 20.039062 -18.417969 Z M 12.597656 -22.554688 C 12.597656 -22.585938 13.195312 -22.683594 13.195312 -22.554688 C 13.195312 -22.519531 12.597656 -22.488281 12.597656 -22.554688 Z M 13.394531 -22.488281 C 13.328125 -22.519531 13.359375 -22.554688 13.523438 -22.554688 C 13.855469 -22.585938 13.558594 -22.421875 13.394531 -22.488281 Z M 14.417969 -22.355469 C 13.128906 -22.488281 14.285156 -22.554688 14.714844 -22.519531 C 15.277344 -22.453125 15.011719 -22.320312 14.417969 -22.355469 Z M 16.367188 -22.253906 C 16.304688 -22.15625 15.972656 -22.253906 16.238281 -22.289062 C 16.335938 -22.289062 16.402344 -22.289062 16.367188 -22.253906 Z M 15.871094 -21.792969 C 16.003906 -21.757812 15.113281 -21.757812 14.980469 -21.890625 C 14.882812 -21.957031 15.640625 -21.890625 15.871094 -21.792969 Z M 18.121094 -21.296875 C 18.15625 -21.097656 14.914062 -22.023438 17.292969 -21.5625 C 17.757812 -21.460938 18.121094 -21.363281 18.121094 -21.296875 Z M 20.269531 -20.898438 C 20.171875 -20.933594 19.34375 -21.363281 19.34375 -21.429688 C 19.34375 -21.625 20.140625 -21 20.269531 -20.898438 Z M 19.082031 -21.066406 C 19.214844 -20.933594 18.683594 -21 18.484375 -21.132812 C 18.121094 -21.363281 19.046875 -21.066406 19.082031 -21.066406 Z M 0.695312 -0.960938 C 0.894531 -0.960938 0.894531 -1.023438 0.859375 -1.519531 C 0.828125 -1.851562 0.828125 -2.148438 0.859375 -2.183594 C 0.925781 -2.347656 0.960938 -3.042969 1.058594 -3.074219 C 1.257812 -3.074219 1.089844 -3.472656 1.453125 -3.933594 C 1.621094 -4.132812 1.6875 -4.132812 1.652344 -4.035156 C 1.554688 -3.703125 1.886719 -3.835938 2.015625 -4.132812 C 2.082031 -4.300781 2.214844 -4.5625 2.347656 -4.695312 C 2.644531 -5.09375 2.347656 -5.226562 2.578125 -5.257812 C 2.777344 -5.257812 2.941406 -5.886719 3.109375 -5.917969 C 3.175781 -5.917969 3.175781 -5.953125 3.074219 -6.019531 C 2.910156 -6.085938 2.910156 -6.117188 3.074219 -6.117188 C 3.242188 -6.117188 3.738281 -6.679688 3.703125 -6.8125 C 3.703125 -6.945312 4.101562 -7.273438 4.132812 -7.339844 C 3.671875 -7.207031 3.570312 -7.144531 3.804688 -7.339844 C 3.902344 -7.441406 4.101562 -7.539062 4.234375 -7.539062 C 4.363281 -7.574219 4.464844 -7.605469 4.464844 -7.640625 C 4.464844 -7.738281 12.136719 -18.652344 13.261719 -19.609375 C 13.425781 -19.773438 13.625 -19.972656 13.589844 -20.171875 C 13.523438 -20.570312 12.796875 -20.734375 12.402344 -20.734375 C 12.070312 -20.765625 11.972656 -20.667969 11.773438 -20.46875 C 7.539062 -15.742188 4.53125 -10.351562 3.867188 -9.558594 C 3.207031 -8.730469 2.578125 -7.871094 1.984375 -7.011719 C 0.03125 -4.066406 -0.132812 -1.621094 0.03125 -1.355469 C 0.0976562 -1.191406 0.296875 -1.289062 0.398438 -1.125 C 0.429688 -1.058594 0.59375 -0.992188 0.695312 -0.960938 Z M 8.199219 -14.683594 C 8.433594 -15.179688 8.863281 -15.441406 8.566406 -14.945312 C 8.398438 -14.683594 8.101562 -14.449219 8.199219 -14.683594 Z M 5.820312 -10.980469 C 5.160156 -10.914062 6.613281 -12.300781 6.582031 -12.433594 C 6.582031 -12.597656 7.339844 -13.425781 7.671875 -13.988281 C 7.9375 -14.449219 8.136719 -14.386719 7.9375 -14.152344 C 7.871094 -14.054688 7.804688 -13.921875 7.804688 -13.890625 C 7.804688 -13.691406 7.375 -13.457031 7.507812 -13.128906 C 7.574219 -12.964844 7.574219 -12.964844 7.40625 -12.996094 C 7.175781 -13.0625 6.679688 -12.46875 6.746094 -12.167969 C 6.8125 -11.804688 6.515625 -12.070312 6.546875 -11.804688 C 6.582031 -11.574219 6.347656 -11.34375 6.117188 -11.34375 C 5.851562 -11.375 6.183594 -11.34375 6.183594 -11.210938 C 6.21875 -11.046875 5.851562 -11.242188 5.953125 -11.078125 C 5.984375 -11.046875 5.917969 -10.980469 5.820312 -10.980469 Z M 5.160156 -9.953125 C 4.859375 -9.988281 4.828125 -9.988281 4.992188 -10.152344 C 5.160156 -10.285156 5.226562 -10.285156 5.390625 -10.152344 C 5.6875 -9.921875 5.523438 -9.886719 5.160156 -9.953125 Z M 4.796875 -9.753906 C 4.761719 -9.886719 5.027344 -9.921875 5.125 -9.789062 C 5.289062 -9.558594 4.796875 -9.558594 4.796875 -9.753906 Z M 4.265625 -8.566406 C 4.035156 -8.566406 4 -8.632812 4.199219 -8.894531 C 4.398438 -9.160156 4.429688 -9.160156 4.464844 -8.863281 C 4.464844 -8.664062 4.429688 -8.597656 4.265625 -8.566406 Z M 3.867188 -8.035156 C 3.671875 -8.003906 3.636719 -8.199219 3.902344 -8.234375 C 4 -8.234375 4.035156 -8.035156 3.867188 -8.035156 Z M 2.941406 -6.8125 C 2.976562 -6.878906 3.042969 -6.910156 3.109375 -6.878906 C 3.308594 -6.777344 2.777344 -6.480469 2.941406 -6.8125 Z M 2.480469 -5.390625 C 2.578125 -5.257812 2.015625 -5.523438 2.546875 -6.152344 C 2.878906 -6.515625 3.042969 -6.613281 2.84375 -6.347656 C 2.777344 -6.25 2.746094 -6.085938 2.777344 -5.984375 C 2.910156 -5.6875 2.347656 -5.589844 2.480469 -5.390625 Z M 1.753906 -4.363281 C 1.554688 -4.234375 1.554688 -4.234375 1.71875 -4.398438 C 1.820312 -4.496094 1.820312 -4.5625 1.753906 -4.597656 C 1.585938 -4.695312 1.785156 -4.992188 1.984375 -4.960938 C 2.050781 -4.925781 2.148438 -4.960938 2.183594 -5.027344 C 2.382812 -5.390625 2.28125 -4.730469 1.984375 -4.695312 C 1.753906 -4.664062 2.082031 -4.5625 1.753906 -4.363281 Z M 1.753906 -4.363281 "/></g></g></g><g fill="#2f2f2f" fill-opacity="1"><g transform="translate(107.680337, 82.233632)"><g><path d="M 5.289062 -2.511719 C 5.65625 -2.28125 5.65625 -2.578125 5.621094 -2.84375 C 5.589844 -3.175781 5.6875 -3.40625 5.851562 -3.703125 C 6.976562 -5.589844 7.605469 -5.886719 7.507812 -6.050781 C 7.40625 -6.183594 7.207031 -5.886719 7.109375 -5.851562 L 7.144531 -6.117188 C 7.175781 -6.183594 7.242188 -6.25 7.273438 -6.25 C 7.574219 -6.449219 7.375 -6.480469 7.703125 -6.8125 C 7.871094 -7.011719 7.902344 -7.011719 7.902344 -6.878906 C 7.902344 -6.777344 7.835938 -6.714844 7.804688 -6.714844 C 7.738281 -6.714844 7.703125 -6.648438 7.703125 -6.582031 C 7.703125 -6.316406 7.96875 -6.714844 8.003906 -6.746094 C 8.300781 -7.144531 8.398438 -7.308594 9.589844 -9.292969 C 10.019531 -9.953125 10.714844 -11.476562 9.621094 -11.839844 C 9.292969 -11.9375 7.539062 -11.011719 6.085938 -9.953125 C 2.941406 -7.605469 2.382812 -6.8125 1.753906 -6.8125 C 1.6875 -7.042969 2.214844 -7.738281 2.347656 -7.902344 C 2.84375 -8.464844 3.175781 -9.128906 3.636719 -9.753906 C 11.640625 -20.402344 8.796875 -16.070312 9.722656 -18.71875 C 9.886719 -19.113281 9.988281 -18.882812 9.988281 -19.046875 C 9.988281 -20.503906 1.324219 -9.621094 0.496094 -6.515625 L 0.332031 -5.851562 C 0.429688 -5.785156 0.960938 -4.894531 1.257812 -5.6875 C 1.355469 -5.953125 1.621094 -5.886719 1.519531 -5.589844 C 1.453125 -5.390625 1.621094 -5.226562 1.71875 -5.390625 C 1.785156 -5.523438 2.117188 -5.421875 2.316406 -5.6875 C 2.347656 -5.753906 7.40625 -9.886719 7.40625 -9.921875 C 7.40625 -10.054688 8.003906 -10.382812 8.53125 -10.714844 C 11.175781 -12.367188 3.40625 -3.867188 5.289062 -2.511719 Z M 7.9375 -15.773438 C 7.9375 -15.640625 7.738281 -15.640625 7.738281 -15.773438 C 7.738281 -15.9375 7.9375 -15.90625 7.9375 -15.773438 Z M 3.40625 -9.988281 C 3.40625 -10.054688 3.636719 -10.085938 3.636719 -10.054688 C 3.636719 -9.988281 3.40625 -9.820312 3.40625 -9.988281 Z M 7.273438 -6.746094 C 7.242188 -7.441406 8.101562 -7.804688 8.332031 -8.367188 C 8.464844 -8.664062 9.09375 -9.953125 9.457031 -9.953125 C 9.953125 -9.988281 9.359375 -9.457031 9.390625 -9.390625 C 9.457031 -9.226562 8.929688 -8.863281 8.929688 -8.664062 C 8.929688 -8.433594 8.828125 -8.730469 8.566406 -8.070312 C 8.433594 -7.738281 8.332031 -7.640625 8.101562 -7.574219 C 7.871094 -7.539062 7.804688 -7.472656 7.804688 -7.339844 C 7.835938 -7.242188 7.804688 -7.144531 7.703125 -7.144531 C 7.539062 -7.144531 7.40625 -6.84375 7.273438 -6.746094 Z M 0.859375 -5.621094 C 0.828125 -6.085938 0.265625 -5.355469 0.960938 -7.042969 C 1.917969 -9.457031 2.480469 -8.828125 1.753906 -7.835938 C 1.324219 -7.273438 0.925781 -5.917969 0.960938 -5.984375 C 1.089844 -6.050781 1.058594 -5.917969 0.960938 -5.65625 C 0.859375 -5.488281 0.859375 -5.488281 0.859375 -5.621094 Z M 2.613281 -8.53125 C 2.480469 -8.398438 2.347656 -8.5 2.445312 -8.664062 C 2.511719 -8.796875 2.777344 -8.695312 2.613281 -8.53125 Z M 2.613281 -8.53125 "/></g></g></g><g fill="#2f2f2f" fill-opacity="1"><g transform="translate(116.905829, 82.233632)"><g><path d="M 1.71875 -5.09375 C 2.183594 -5.125 2.613281 -5.289062 3.042969 -5.488281 C 6.183594 -6.8125 7.175781 -7.640625 8.199219 -8.300781 L 10.25 -9.621094 C 10.417969 -9.722656 11.109375 -10.152344 10.980469 -10.417969 C 10.945312 -10.484375 10.914062 -10.515625 10.847656 -10.515625 C 10.582031 -10.550781 10.316406 -10.316406 10.085938 -10.183594 L 9.292969 -9.753906 C 8.828125 -9.523438 2.746094 -5.554688 1.257812 -6.019531 C 0.296875 -6.316406 0.859375 -7.574219 1.621094 -7.671875 C 2.511719 -7.804688 6.117188 -9.257812 6.878906 -9.789062 C 7.574219 -10.25 7.769531 -10.449219 7.902344 -10.980469 C 8.003906 -11.410156 7.835938 -12.167969 7.339844 -12.269531 C 6.878906 -12.335938 6.347656 -12.234375 5.917969 -12.101562 C 5.226562 -11.871094 4.5625 -11.476562 4 -11.144531 C 2.382812 -10.21875 0 -8.003906 -0.164062 -6.546875 C -0.265625 -5.488281 0.792969 -4.992188 1.71875 -5.09375 Z M 3.109375 -8.632812 C 3.074219 -8.730469 3.273438 -8.761719 3.308594 -8.863281 C 3.671875 -8.996094 3.539062 -8.960938 3.636719 -9.027344 C 3.605469 -9.027344 3.570312 -9.027344 3.570312 -9.0625 L 3.472656 -8.996094 L 3.4375 -8.996094 C 2.183594 -8.53125 2.082031 -8.53125 2.644531 -9.027344 C 4.101562 -10.316406 4.925781 -10.714844 5.6875 -11.046875 C 6.546875 -11.441406 6.8125 -11.605469 6.878906 -11.738281 C 7.042969 -12.101562 7.144531 -11.640625 7.273438 -11.707031 C 7.308594 -11.738281 7.375 -11.871094 7.40625 -11.738281 C 7.441406 -11.605469 7.40625 -11.410156 7.441406 -11.242188 C 7.441406 -11.109375 7.472656 -11.046875 7.375 -10.945312 C 7.273438 -10.847656 7.109375 -10.8125 7.011719 -10.714844 C 6.878906 -10.613281 6.777344 -10.484375 6.648438 -10.417969 C 6.449219 -10.285156 6.183594 -10.21875 5.984375 -10.152344 C 5.785156 -10.085938 5.65625 -9.921875 5.457031 -9.820312 C 5.390625 -9.789062 5.027344 -9.621094 5.160156 -9.523438 L 5.324219 -9.523438 C 5.226562 -9.425781 4.960938 -9.457031 5.058594 -9.359375 C 5.058594 -9.324219 4.628906 -9.292969 4.664062 -9.257812 C 4.761719 -9.226562 4.730469 -9.160156 4.628906 -9.191406 C 4.53125 -9.226562 3.738281 -8.929688 3.769531 -8.894531 C 3.804688 -8.796875 3.671875 -8.960938 3.605469 -8.796875 C 3.570312 -8.761719 3.570312 -8.730469 3.539062 -8.761719 C 3.539062 -8.796875 3.308594 -8.730469 3.308594 -8.664062 C 3.339844 -8.632812 3.308594 -8.695312 3.109375 -8.632812 Z M 5.523438 -9.589844 C 5.257812 -9.457031 5.324219 -9.753906 5.421875 -9.722656 C 5.488281 -9.6875 5.289062 -9.589844 5.488281 -9.65625 C 5.554688 -9.6875 5.621094 -9.722656 5.621094 -9.6875 C 5.589844 -9.65625 5.753906 -9.722656 5.785156 -9.6875 C 5.785156 -9.65625 5.785156 -9.65625 5.753906 -9.65625 C 5.722656 -9.6875 5.6875 -9.65625 5.722656 -9.621094 C 5.722656 -9.523438 5.6875 -9.65625 5.523438 -9.589844 Z M 3.738281 -8.761719 C 3.769531 -8.796875 5.125 -9.292969 5.125 -9.257812 C 5.160156 -9.160156 3.636719 -8.53125 3.738281 -8.761719 Z M 3.738281 -8.761719 "/></g></g></g><g fill="#2f2f2f" fill-opacity="1"><g transform="translate(124.610266, 82.233632)"><g/></g></g><g fill="#2f2f2f" fill-opacity="1"><g transform="translate(134.530148, 82.233632)"><g><path d="M 18.652344 -16.335938 C 18.652344 -16.136719 18.949219 -16.335938 19.015625 -16.402344 C 19.378906 -16.734375 19.542969 -17.195312 19.578125 -17.660156 C 19.773438 -21.59375 4.167969 -20.933594 3.867188 -19.542969 C 3.867188 -19.445312 3.867188 -19.34375 3.804688 -19.277344 C 3.570312 -19.082031 3.835938 -17.789062 5.027344 -18.484375 C 5.722656 -18.914062 6.976562 -18.617188 8.433594 -18.914062 C 9.425781 -19.082031 13.292969 -19.179688 14.417969 -19.015625 C 16.566406 -18.71875 18.519531 -18.054688 18.949219 -17.527344 C 19.246094 -17.097656 18.617188 -16.601562 18.652344 -16.335938 Z M 17.890625 -19.34375 C 18.054688 -19.082031 17.527344 -19.445312 16.003906 -19.808594 C 14.1875 -20.203125 13.523438 -20.269531 10.382812 -20.238281 C 4.363281 -20.203125 11.773438 -20.535156 13.457031 -20.402344 C 14.617188 -20.304688 17.726562 -19.578125 17.890625 -19.34375 Z M 6.746094 -20.105469 C 6.613281 -20.105469 6.714844 -20.140625 6.910156 -20.140625 C 7.472656 -20.171875 7.042969 -20.039062 6.746094 -20.105469 Z M 18.949219 -18.417969 C 19.214844 -18.121094 19.015625 -18.585938 15.113281 -19.410156 C 12.699219 -19.941406 14.515625 -19.808594 12.167969 -19.90625 C 12.070312 -19.90625 12.167969 -20.105469 12.269531 -20.105469 L 13.558594 -20.007812 C 15.011719 -19.839844 15.246094 -19.808594 15.046875 -19.675781 C 14.945312 -19.578125 15.011719 -19.578125 15.210938 -19.578125 C 16.003906 -19.644531 18.386719 -19.015625 18.949219 -18.417969 Z M 0.03125 -0.398438 C 1.554688 -3.339844 0.925781 -2.015625 1.652344 -3.207031 C 1.753906 -3.339844 1.785156 -3.503906 1.886719 -3.636719 C 1.949219 -3.703125 2.878906 -5.226562 3.273438 -5.355469 C 3.371094 -5.390625 3.472656 -5.488281 3.472656 -5.554688 C 3.472656 -5.6875 4.53125 -6.84375 4.859375 -7.308594 C 4.992188 -7.472656 4.859375 -7.804688 5.226562 -7.9375 C 5.820312 -8.167969 5.523438 -9.128906 6.945312 -9.523438 C 7.769531 -9.722656 11.308594 -10.085938 12.53125 -9.753906 C 13.160156 -9.589844 13.292969 -9.558594 13.359375 -9.6875 C 13.492188 -9.921875 13.128906 -10.019531 13.195312 -10.351562 C 13.394531 -11.109375 11.242188 -11.640625 8.828125 -11.476562 C 8.265625 -11.410156 7.804688 -11.410156 7.804688 -11.441406 C 7.804688 -11.476562 11.441406 -16.433594 11.441406 -17.03125 C 11.441406 -17.230469 11.574219 -17.230469 11.671875 -17.359375 C 11.804688 -17.527344 11.773438 -17.757812 11.773438 -17.789062 C 11.738281 -17.824219 11.707031 -17.789062 11.671875 -17.789062 C 11.605469 -17.789062 11.574219 -17.890625 11.539062 -17.921875 C 11.476562 -17.988281 11.410156 -18.023438 11.375 -18.121094 C 11.277344 -18.320312 10.980469 -18.320312 10.8125 -18.222656 C 10.515625 -18.054688 8.929688 -15.640625 7.441406 -13.394531 C 5.257812 -10.085938 5.984375 -11.410156 3.371094 -10.449219 C 2.941406 -10.285156 2.878906 -10.152344 2.878906 -9.886719 C 2.910156 -9.558594 3.042969 -8.929688 3.109375 -8.863281 C 3.273438 -8.664062 3.570312 -8.996094 3.933594 -8.996094 C 3.804688 -8.433594 0.695312 -5.027344 -0.695312 -1.917969 C -1.125 -0.925781 -1.023438 -0.59375 -0.894531 -0.828125 C -0.859375 -0.894531 -0.761719 -1.058594 -0.660156 -1.023438 C -0.59375 -0.992188 -0.59375 -0.792969 -0.59375 -0.695312 C -0.5625 -0.429688 -0.0664062 -0.164062 0.03125 -0.398438 Z M 7.40625 -10.714844 C 7.375 -10.746094 7.472656 -11.109375 7.902344 -11.109375 C 8.566406 -11.078125 8.828125 -11.308594 10.550781 -11.210938 C 10.945312 -11.175781 12.234375 -11.109375 12.300781 -10.980469 C 12.335938 -10.878906 12.203125 -10.878906 12.136719 -10.914062 C 10.449219 -11.011719 10.417969 -11.175781 8.597656 -10.878906 C 8.398438 -10.847656 7.472656 -10.582031 7.40625 -10.714844 Z M 12.035156 -10.417969 C 11.90625 -10.382812 11.839844 -10.515625 11.738281 -10.582031 C 11.707031 -10.582031 11.671875 -10.613281 11.671875 -10.648438 C 11.605469 -10.714844 11.707031 -10.746094 11.773438 -10.746094 C 11.90625 -10.714844 12.035156 -10.515625 12.035156 -10.417969 Z M 11.175781 -10.679688 C 11.078125 -10.679688 11.144531 -10.714844 11.277344 -10.714844 C 11.640625 -10.714844 11.34375 -10.613281 11.175781 -10.679688 Z M 2.679688 -6.019531 C 2.613281 -6.085938 2.746094 -6.414062 2.84375 -6.414062 C 2.976562 -6.414062 2.746094 -5.984375 2.679688 -6.019531 Z M 1.585938 -3.703125 C 1.355469 -3.605469 1.585938 -4.132812 1.621094 -4.199219 C 1.753906 -4.363281 1.851562 -4.496094 2.015625 -4.664062 C 2.117188 -4.761719 2.183594 -5.058594 2.347656 -5.125 L 2.414062 -5.125 C 2.445312 -5.160156 2.445312 -5.257812 2.480469 -5.257812 C 2.511719 -5.226562 2.511719 -5.191406 2.511719 -5.160156 L 2.316406 -4.730469 L 2.214844 -4.5625 L 2.117188 -4.398438 L 1.652344 -3.769531 C 1.652344 -3.738281 1.621094 -3.703125 1.585938 -3.703125 Z M 1.421875 -4.429688 C 1.324219 -4.429688 1.390625 -4.597656 1.585938 -4.828125 C 1.851562 -5.226562 1.621094 -4.464844 1.421875 -4.429688 Z M 1.421875 -4.429688 "/></g></g></g><g fill="#2f2f2f" fill-opacity="1"><g transform="translate(148.153452, 82.233632)"><g><path d="M -1.023438 -1.820312 C -0.960938 -2.347656 -0.925781 -2.050781 -0.628906 -2.777344 C -0.332031 -3.472656 -0.332031 -3.074219 -0.0664062 -3.703125 C 0.230469 -4.429688 1.058594 -5.125 1.023438 -5.324219 C 1.023438 -5.390625 1.15625 -5.589844 1.355469 -5.785156 C 1.71875 -6.21875 1.917969 -6.515625 2.28125 -7.109375 C 2.679688 -7.738281 2.710938 -7.472656 2.777344 -7.738281 C 2.84375 -7.9375 3.503906 -8.664062 4.132812 -9.558594 C 4.664062 -10.351562 10.183594 -16.5 10.417969 -17.625 C 10.484375 -18.054688 10.484375 -18.15625 10.316406 -18.417969 C 10.152344 -18.683594 9.855469 -18.914062 9.6875 -18.914062 C 9.65625 -18.914062 9.492188 -18.71875 9.324219 -18.484375 C 8.136719 -16.929688 -2.910156 -4.035156 -1.554688 -1.851562 C -1.289062 -1.355469 -1.058594 -1.355469 -1.023438 -1.820312 Z M 3.96875 -10.152344 C 3.804688 -9.953125 3.703125 -10.054688 3.867188 -10.25 C 4.035156 -10.484375 4.132812 -10.382812 3.96875 -10.152344 Z M 4.234375 -9.921875 C 3.867188 -9.425781 4.035156 -10.117188 4.332031 -10.152344 C 4.363281 -10.152344 4.332031 -10.054688 4.234375 -9.921875 Z M 3.570312 -9.722656 C 3.503906 -9.621094 3.140625 -9.722656 3.4375 -9.753906 C 3.539062 -9.789062 3.605469 -9.753906 3.570312 -9.722656 Z M 2.117188 -7.207031 C 1.785156 -7.207031 1.554688 -7.339844 1.753906 -7.441406 C 2.082031 -7.574219 2.117188 -8.398438 2.480469 -8.332031 C 2.644531 -8.300781 2.644531 -8.332031 2.578125 -8.433594 C 2.480469 -8.53125 2.480469 -8.566406 2.578125 -8.632812 C 2.878906 -8.761719 2.941406 -8.730469 2.84375 -8.367188 C 2.546875 -7.339844 1.949219 -8.035156 2.214844 -7.472656 C 2.316406 -7.273438 2.316406 -7.242188 2.117188 -7.207031 Z M 1.785156 -6.945312 C 1.71875 -6.746094 1.519531 -6.679688 1.652344 -6.976562 C 1.753906 -7.242188 1.851562 -7.207031 1.785156 -6.945312 Z M 1.023438 -6.316406 C 1.058594 -6.382812 1.089844 -6.449219 1.125 -6.449219 C 1.125 -6.449219 1.191406 -6.414062 1.222656 -6.347656 C 1.324219 -6.21875 0.960938 -6.183594 1.023438 -6.316406 Z M 0.660156 -5.589844 C 0.398438 -5.554688 0.726562 -5.886719 0.761719 -5.886719 C 0.761719 -5.886719 0.792969 -5.820312 0.792969 -5.753906 C 0.828125 -5.65625 0.761719 -5.589844 0.660156 -5.589844 Z M 0.132812 -4.597656 C -0.0976562 -4.429688 -0.0976562 -4.429688 -0.0976562 -4.597656 L -0.0664062 -4.761719 C 0 -4.796875 0.363281 -4.828125 0.363281 -4.796875 C 0.363281 -4.796875 0.265625 -4.695312 0.132812 -4.597656 Z M -0.628906 -3.4375 C -0.527344 -3.605469 -0.464844 -3.570312 -0.464844 -3.472656 C -0.464844 -3.308594 -0.695312 -3.308594 -0.628906 -3.4375 Z M -0.628906 -3.4375 "/></g></g></g><g fill="#2f2f2f" fill-opacity="1"><g transform="translate(152.319798, 82.233632)"><g><path d="M 1.324219 -4.796875 C 2.710938 -5.226562 4.035156 -7.273438 4.53125 -7.804688 C 4.859375 -7.703125 5.289062 -7.640625 5.6875 -7.671875 C 7.078125 -7.835938 8.464844 -8.863281 9.621094 -9.621094 C 9.789062 -9.722656 10.515625 -10.152344 10.382812 -10.417969 C 10.351562 -10.484375 10.285156 -10.515625 10.25 -10.515625 C 9.988281 -10.550781 9.523438 -10.21875 9.390625 -10.152344 C 8.433594 -9.722656 6.84375 -8.894531 5.589844 -8.796875 C 5.851562 -9.226562 6.050781 -9.722656 6.28125 -10.085938 C 6.582031 -10.550781 7.109375 -11.277344 6.910156 -11.871094 C 6.8125 -12.167969 6.28125 -12.566406 6.050781 -12.566406 C 5.226562 -12.46875 5.753906 -14.78125 1.089844 -8.695312 C -0.265625 -6.910156 -0.5625 -4.199219 1.324219 -4.796875 Z M 4.363281 -9.128906 C 4.199219 -9.292969 4.066406 -9.523438 4.066406 -9.753906 C 4.992188 -11.046875 6.746094 -12.402344 5.554688 -10.679688 C 4.796875 -9.589844 4.597656 -9.226562 4.363281 -9.128906 Z M 6.679688 -10.878906 C 6.582031 -10.746094 6.546875 -10.78125 6.546875 -10.878906 C 6.546875 -11.011719 6.777344 -10.980469 6.679688 -10.878906 Z M 5.984375 -9.789062 C 5.953125 -9.753906 5.621094 -9.820312 5.621094 -9.820312 C 5.621094 -9.855469 5.722656 -9.921875 5.851562 -9.988281 C 6.050781 -10.085938 6.085938 -10.085938 6.050781 -9.953125 Z M 1.125 -6.019531 C 0.59375 -5.984375 2.84375 -9.390625 3.042969 -9.160156 C 3.042969 -8.929688 3.109375 -8.730469 3.339844 -8.5 C 3.503906 -8.035156 3.503906 -8.070312 3.207031 -7.738281 C 2.878906 -7.375 1.585938 -6.085938 1.125 -6.019531 Z M 5.09375 -8.894531 C 5.058594 -8.929688 5.027344 -9.191406 5.226562 -9.160156 C 5.457031 -9.160156 5.125 -8.894531 5.09375 -8.894531 Z M 4.796875 -8.566406 C 4.695312 -8.464844 4.664062 -8.464844 4.597656 -8.597656 C 4.5625 -8.730469 4.894531 -8.695312 4.796875 -8.566406 Z M 4.132812 -8.070312 C 4 -7.871094 3.902344 -7.902344 4.035156 -8.136719 C 4.101562 -8.300781 4.300781 -8.332031 4.132812 -8.070312 Z M 3.074219 -6.777344 C 2.777344 -6.679688 2.710938 -6.746094 2.878906 -7.042969 C 3.273438 -7.902344 3.703125 -7.175781 3.539062 -7.738281 C 3.503906 -7.9375 3.503906 -7.96875 3.671875 -7.9375 C 3.96875 -7.902344 4.167969 -7.738281 3.96875 -7.703125 C 3.671875 -7.605469 3.503906 -6.878906 3.207031 -7.011719 C 3.042969 -7.042969 3.042969 -7.042969 3.109375 -6.945312 C 3.175781 -6.84375 3.175781 -6.8125 3.074219 -6.777344 Z M 1.289062 -5.6875 C 1.222656 -5.6875 1.289062 -5.753906 1.390625 -5.851562 C 1.820312 -6.25 1.554688 -5.65625 1.289062 -5.6875 Z M 2.148438 -5.886719 C 2.050781 -5.886719 1.984375 -5.917969 2.015625 -5.953125 C 2.082031 -6.019531 2.382812 -5.886719 2.148438 -5.886719 Z M 1.6875 -5.488281 C 1.488281 -5.324219 1.421875 -5.421875 1.585938 -5.621094 C 1.753906 -5.785156 1.851562 -5.6875 1.6875 -5.488281 Z M 1.6875 -5.488281 "/></g></g></g><g fill="#2f2f2f" fill-opacity="1"><g transform="translate(160.057303, 82.233632)"><g><path d="M 4.332031 -5.125 C 4.5625 -5.226562 4.730469 -5.421875 4.894531 -5.589844 C 5.851562 -6.613281 6.84375 -7.605469 7.902344 -8.5 C 8.929688 -9.390625 9.558594 -9.722656 10.550781 -10.613281 C 10.847656 -10.878906 11.640625 -11.34375 12.269531 -11.671875 C 12.898438 -12.003906 13.457031 -12.335938 13.492188 -12.433594 C 13.523438 -12.5 13.492188 -12.597656 13.394531 -12.664062 C 13.160156 -12.832031 12.964844 -12.832031 12.964844 -12.664062 C 12.964844 -12.597656 12.796875 -12.46875 12.566406 -12.402344 C 12.003906 -12.234375 10.515625 -11.308594 9.886719 -10.8125 C 9.558594 -10.550781 9.722656 -10.613281 9.523438 -10.484375 L 8.566406 -9.789062 C 8.167969 -9.457031 8.003906 -9.390625 8.003906 -9.523438 C 8.003906 -9.589844 8.136719 -9.753906 8.265625 -9.855469 L 9.257812 -10.582031 C 9.855469 -11.011719 10.152344 -11.34375 11.175781 -11.90625 C 11.605469 -12.136719 11.972656 -12.335938 12.035156 -12.335938 C 12.101562 -12.335938 12.167969 -12.367188 12.203125 -12.433594 C 12.269531 -12.53125 11.804688 -12.402344 11.308594 -12.167969 C 10.945312 -12.167969 10.285156 -11.539062 10.019531 -11.34375 C 9.492188 -10.945312 9.492188 -10.945312 8.960938 -10.582031 C 7.539062 -9.523438 6.316406 -8.265625 5.027344 -7.042969 C 4.925781 -6.945312 4.761719 -6.84375 4.664062 -6.945312 C 5.191406 -8.566406 6.449219 -9.820312 7.242188 -11.34375 C 7.144531 -11.441406 7.011719 -11.476562 6.878906 -11.476562 C 6.714844 -11.476562 6.582031 -11.476562 6.449219 -11.507812 C 6.347656 -11.574219 6.28125 -11.738281 6.28125 -11.839844 C 5.953125 -11.773438 5.65625 -11.441406 5.421875 -11.210938 C 4.828125 -10.679688 4.265625 -10.117188 3.738281 -9.558594 C 3.175781 -8.996094 2.511719 -7.738281 1.621094 -7.738281 C 2.480469 -9.160156 3.273438 -10.449219 4.234375 -11.871094 C 4.300781 -11.9375 4.234375 -12.234375 4.132812 -12.269531 C 4.101562 -12.300781 4.035156 -12.269531 3.96875 -12.269531 C 3.835938 -12.300781 3.835938 -12.53125 3.867188 -12.664062 C 4 -13.523438 3.207031 -12.46875 3.109375 -12.300781 L 1.785156 -9.988281 C 1.257812 -9.027344 0.660156 -7.96875 0.496094 -7.574219 L 0.0976562 -6.714844 C 0 -6.546875 -0.03125 -5.984375 0.0664062 -5.753906 C 0.0976562 -5.65625 0.164062 -5.65625 0.230469 -5.722656 C 0.332031 -5.785156 0.363281 -5.753906 0.429688 -5.589844 C 0.496094 -5.226562 0.859375 -5.289062 1.289062 -5.6875 L 2.347656 -6.679688 C 2.746094 -7.042969 3.371094 -7.703125 3.769531 -8.136719 C 4.167969 -8.597656 4.496094 -8.960938 4.53125 -8.929688 C 4.53125 -8.894531 4.429688 -8.597656 4.234375 -8.234375 C 4.101562 -7.96875 3.109375 -6.085938 3.605469 -6.019531 C 3.769531 -6.019531 3.867188 -5.820312 3.835938 -5.65625 C 3.835938 -5.523438 3.738281 -5.355469 3.636719 -5.257812 C 3.804688 -5.058594 4.101562 -5.027344 4.332031 -5.125 Z M 4.464844 -7.703125 C 4.265625 -7.640625 4.363281 -7.902344 4.695312 -8.398438 C 4.859375 -8.664062 5.027344 -8.929688 5.027344 -8.960938 C 5.027344 -9.0625 5.125 -9.09375 5.226562 -8.996094 C 5.324219 -8.894531 4.664062 -7.738281 4.464844 -7.703125 Z M 4.464844 -7.703125 "/></g></g></g><g fill="#2f2f2f" fill-opacity="1"><g transform="translate(169.150522, 82.233632)"><g><path d="M 1.71875 -5.09375 C 2.183594 -5.125 2.613281 -5.289062 3.042969 -5.488281 C 6.183594 -6.8125 7.175781 -7.640625 8.199219 -8.300781 L 10.25 -9.621094 C 10.417969 -9.722656 11.109375 -10.152344 10.980469 -10.417969 C 10.945312 -10.484375 10.914062 -10.515625 10.847656 -10.515625 C 10.582031 -10.550781 10.316406 -10.316406 10.085938 -10.183594 L 9.292969 -9.753906 C 8.828125 -9.523438 2.746094 -5.554688 1.257812 -6.019531 C 0.296875 -6.316406 0.859375 -7.574219 1.621094 -7.671875 C 2.511719 -7.804688 6.117188 -9.257812 6.878906 -9.789062 C 7.574219 -10.25 7.769531 -10.449219 7.902344 -10.980469 C 8.003906 -11.410156 7.835938 -12.167969 7.339844 -12.269531 C 6.878906 -12.335938 6.347656 -12.234375 5.917969 -12.101562 C 5.226562 -11.871094 4.5625 -11.476562 4 -11.144531 C 2.382812 -10.21875 0 -8.003906 -0.164062 -6.546875 C -0.265625 -5.488281 0.792969 -4.992188 1.71875 -5.09375 Z M 3.109375 -8.632812 C 3.074219 -8.730469 3.273438 -8.761719 3.308594 -8.863281 C 3.671875 -8.996094 3.539062 -8.960938 3.636719 -9.027344 C 3.605469 -9.027344 3.570312 -9.027344 3.570312 -9.0625 L 3.472656 -8.996094 L 3.4375 -8.996094 C 2.183594 -8.53125 2.082031 -8.53125 2.644531 -9.027344 C 4.101562 -10.316406 4.925781 -10.714844 5.6875 -11.046875 C 6.546875 -11.441406 6.8125 -11.605469 6.878906 -11.738281 C 7.042969 -12.101562 7.144531 -11.640625 7.273438 -11.707031 C 7.308594 -11.738281 7.375 -11.871094 7.40625 -11.738281 C 7.441406 -11.605469 7.40625 -11.410156 7.441406 -11.242188 C 7.441406 -11.109375 7.472656 -11.046875 7.375 -10.945312 C 7.273438 -10.847656 7.109375 -10.8125 7.011719 -10.714844 C 6.878906 -10.613281 6.777344 -10.484375 6.648438 -10.417969 C 6.449219 -10.285156 6.183594 -10.21875 5.984375 -10.152344 C 5.785156 -10.085938 5.65625 -9.921875 5.457031 -9.820312 C 5.390625 -9.789062 5.027344 -9.621094 5.160156 -9.523438 L 5.324219 -9.523438 C 5.226562 -9.425781 4.960938 -9.457031 5.058594 -9.359375 C 5.058594 -9.324219 4.628906 -9.292969 4.664062 -9.257812 C 4.761719 -9.226562 4.730469 -9.160156 4.628906 -9.191406 C 4.53125 -9.226562 3.738281 -8.929688 3.769531 -8.894531 C 3.804688 -8.796875 3.671875 -8.960938 3.605469 -8.796875 C 3.570312 -8.761719 3.570312 -8.730469 3.539062 -8.761719 C 3.539062 -8.796875 3.308594 -8.730469 3.308594 -8.664062 C 3.339844 -8.632812 3.308594 -8.695312 3.109375 -8.632812 Z M 5.523438 -9.589844 C 5.257812 -9.457031 5.324219 -9.753906 5.421875 -9.722656 C 5.488281 -9.6875 5.289062 -9.589844 5.488281 -9.65625 C 5.554688 -9.6875 5.621094 -9.722656 5.621094 -9.6875 C 5.589844 -9.65625 5.753906 -9.722656 5.785156 -9.6875 C 5.785156 -9.65625 5.785156 -9.65625 5.753906 -9.65625 C 5.722656 -9.6875 5.6875 -9.65625 5.722656 -9.621094 C 5.722656 -9.523438 5.6875 -9.65625 5.523438 -9.589844 Z M 3.738281 -8.761719 C 3.769531 -8.796875 5.125 -9.292969 5.125 -9.257812 C 5.160156 -9.160156 3.636719 -8.53125 3.738281 -8.761719 Z M 3.738281 -8.761719 "/></g></g></g><g fill="#2f2f2f" fill-opacity="1"><g transform="translate(176.85496, 82.233632)"><g><path d="M 0.0664062 -5.324219 C 0.132812 -5.289062 0.660156 -6.019531 0.695312 -6.085938 C 0.792969 -6.316406 0.660156 -6.25 0.660156 -6.449219 C 0.628906 -6.648438 1.15625 -7.011719 1.289062 -7.175781 C 1.621094 -7.507812 1.917969 -7.835938 2.316406 -8.070312 C 2.28125 -7.96875 2.214844 -7.871094 2.148438 -7.804688 C 1.851562 -7.441406 1.554688 -7.109375 1.222656 -6.777344 C 1.125 -6.679688 0.992188 -6.546875 0.992188 -6.382812 L 1.289062 -6.648438 C 1.421875 -6.777344 1.585938 -6.945312 1.753906 -7.078125 L 2.644531 -7.96875 C 3.175781 -8.5 3.703125 -9.0625 4.300781 -9.523438 C 5.226562 -10.285156 6.25 -11.078125 7.441406 -11.375 C 7.441406 -10.714844 7.804688 -11.046875 7.804688 -11.046875 C 7.902344 -11.308594 8.367188 -12.136719 8.035156 -12.234375 C 8.003906 -12.234375 7.96875 -12.234375 7.9375 -12.203125 L 7.703125 -12.167969 C 6.8125 -11.972656 5.917969 -11.476562 5.125 -11.011719 C 4.300781 -10.515625 3.503906 -9.886719 2.8125 -9.191406 C 2.746094 -9.128906 2.679688 -9.0625 2.613281 -9.09375 C 2.679688 -9.457031 3.242188 -9.722656 3.40625 -10.054688 C 3.4375 -10.117188 3.472656 -10.21875 3.472656 -10.285156 C 3.472656 -10.351562 3.371094 -10.382812 3.40625 -10.484375 C 3.4375 -10.613281 3.539062 -10.515625 3.605469 -10.582031 C 3.703125 -10.679688 3.738281 -10.714844 3.804688 -10.878906 C 3.902344 -11.175781 4.265625 -11.144531 4.496094 -11.375 L 4.730469 -11.605469 C 4.925781 -11.839844 5.324219 -12.101562 5.355469 -12.433594 C 5.125 -12.300781 4.53125 -12.433594 4.464844 -12.730469 C 3.902344 -12.632812 3.703125 -12.070312 3.339844 -11.707031 C 2.183594 -10.351562 1.089844 -8.863281 0.0976562 -7.308594 C -0.0976562 -6.976562 -0.496094 -6.316406 -0.628906 -5.953125 C -0.761719 -5.554688 -0.199219 -5.621094 0.0664062 -5.324219 Z M 0.0664062 -5.324219 "/></g></g></g><g fill="#2f2f2f" fill-opacity="1"><g transform="translate(182.707691, 82.233632)"><g><path d="M -0.332031 -6.714844 C -0.628906 -6.019531 -0.164062 -5.191406 0.496094 -5.226562 C 1.191406 -5.289062 4.234375 -6.910156 5.355469 -7.835938 C 5.6875 -8.136719 5.984375 -8.332031 5.984375 -8.300781 C 6.050781 -8.265625 2.347656 -2.710938 1.324219 -2.117188 C -2.183594 -0.03125 -4.761719 4.628906 -4.628906 4.695312 C -4.5625 4.695312 -4.496094 4.859375 -4.496094 4.992188 C -4.464844 5.421875 -4.132812 5.488281 -3.738281 5.125 C -2.679688 4.199219 1.585938 -0.792969 2.183594 -1.519531 C 3.140625 -2.777344 3.835938 -2.511719 3.671875 -2.84375 L 3.371094 -2.679688 C 3.175781 -2.578125 3.207031 -2.84375 3.902344 -3.175781 C 4.101562 -3.273438 4.398438 -3.371094 4.363281 -3.671875 C 4.363281 -3.835938 4.035156 -3.503906 3.933594 -3.636719 C 3.804688 -3.804688 4.398438 -4.300781 4.628906 -4.730469 C 4.960938 -5.390625 6.019531 -6.449219 6.183594 -6.679688 C 7.40625 -8.234375 7.144531 -8.199219 7.242188 -8.234375 C 7.375 -8.234375 7.441406 -8.695312 7.738281 -8.796875 C 8.003906 -8.929688 7.769531 -8.996094 8.300781 -9.65625 C 8.828125 -10.351562 8.566406 -10.285156 8.828125 -10.582031 C 8.960938 -10.8125 8.960938 -10.8125 8.730469 -10.945312 C 8.53125 -11.078125 8.5 -11.109375 8.664062 -11.277344 C 8.796875 -11.441406 8.761719 -11.476562 8.5 -11.507812 C 7.835938 -11.605469 7.472656 -10.679688 4.496094 -8.464844 C 3.769531 -7.902344 0.398438 -5.753906 0.695312 -6.582031 C 0.828125 -6.910156 1.289062 -6.976562 1.453125 -7.640625 C 1.519531 -7.871094 1.585938 -7.804688 1.820312 -7.902344 C 1.917969 -7.9375 3.570312 -9.257812 3.570312 -9.292969 C 3.703125 -9.425781 3.671875 -9.621094 3.738281 -9.820312 C 3.867188 -10.21875 5.753906 -11.671875 6.414062 -12.070312 C 6.613281 -12.203125 6.546875 -12.335938 6.347656 -12.300781 C 5.355469 -12.136719 5.785156 -12.300781 5.390625 -12.269531 C 4.992188 -12.269531 0.332031 -8.265625 -0.332031 -6.714844 Z M 6.679688 -7.804688 C 6.679688 -7.605469 5.984375 -7.011719 6.347656 -7.605469 C 6.480469 -7.835938 6.648438 -7.96875 6.679688 -7.804688 Z M 5.6875 -6.382812 C 5.621094 -6.25 5.390625 -6.21875 5.488281 -6.382812 C 5.554688 -6.515625 5.753906 -6.515625 5.6875 -6.382812 Z M 2.976562 -3.207031 C 2.976562 -3.140625 2.347656 -2.746094 2.710938 -3.074219 C 2.910156 -3.242188 2.976562 -3.273438 2.976562 -3.207031 Z M 1.851562 -1.421875 C 1.851562 -1.222656 1.851562 -1.554688 1.421875 -0.992188 C 0.992188 -0.464844 0.132812 0.398438 0.132812 0.527344 C 0.132812 0.628906 -0.230469 1.058594 -0.265625 0.992188 C -0.332031 0.925781 -1.023438 1.785156 -1.023438 1.886719 C -0.992188 2.050781 -1.488281 2.214844 -1.421875 2.382812 C -1.355469 2.578125 -3.308594 3.835938 -2.414062 3.007812 C -2.214844 2.84375 -2.183594 2.746094 -2.316406 2.679688 C -2.414062 2.613281 -2.414062 2.613281 -2.28125 2.644531 C -2.050781 2.710938 -1.519531 2.148438 -1.6875 2.148438 C -1.851562 2.183594 -1.886719 1.984375 -1.652344 1.949219 C -1.453125 1.949219 -0.230469 0.59375 -0.332031 0.527344 C -0.363281 0.464844 -0.332031 0.429688 -0.230469 0.429688 C 0.03125 0.429688 -0.164062 -0.0664062 -0.03125 0.03125 C 0.03125 0.132812 0.398438 -0.230469 0.332031 -0.332031 C 0.230469 -0.429688 0.398438 -0.332031 0.792969 -0.761719 C 0.960938 -0.925781 1.125 -1.089844 1.15625 -1.089844 C 1.289062 -1.089844 1.820312 -1.785156 1.851562 -1.421875 Z M -0.398438 0.230469 C -0.398438 0.398438 -3.835938 4.167969 -2.117188 1.851562 C -1.453125 0.960938 -1.421875 0.925781 -0.960938 0.496094 C -0.5625 0.132812 -0.398438 0.0664062 -0.398438 0.230469 Z M -2.546875 3.605469 C -2.511719 3.804688 -2.777344 3.804688 -2.679688 3.636719 C -2.613281 3.4375 -3.007812 4.035156 -3.042969 3.933594 C -3.042969 3.835938 -3.308594 4.167969 -3.40625 4.066406 C -3.4375 4.035156 -3.40625 4 -3.339844 4 C -3.273438 4 -3.242188 3.96875 -3.308594 3.902344 C -3.40625 3.738281 -3.207031 3.96875 -3.007812 3.671875 C -2.777344 3.40625 -2.546875 3.371094 -2.546875 3.605469 Z M -2.546875 3.605469 "/></g></g></g><g fill="#2f2f2f" fill-opacity="1"><g transform="translate(135.208704, 86.678791)"><g><path d="M 1.464844 -1.839844 C 0.839844 -1.949219 0.570312 -2.082031 0.570312 -2.410156 C 0.570312 -2.804688 0.890625 -3.007812 1.40625 -3.007812 C 1.773438 -3.007812 2.132812 -2.882812 2.21875 -2.527344 L 2.542969 -2.640625 C 2.421875 -3.042969 1.988281 -3.351562 1.40625 -3.351562 C 0.59375 -3.351562 0.222656 -2.898438 0.226562 -2.410156 C 0.230469 -1.800781 0.757812 -1.621094 1.40625 -1.503906 C 2.054688 -1.382812 2.335938 -1.285156 2.335938 -0.925781 C 2.335938 -0.460938 1.816406 -0.304688 1.464844 -0.304688 C 0.960938 -0.304688 0.601562 -0.488281 0.46875 -0.804688 L 0.140625 -0.691406 C 0.28125 -0.316406 0.726562 0.0390625 1.472656 0.0390625 C 2.082031 0.0390625 2.683594 -0.285156 2.683594 -0.925781 C 2.683594 -1.578125 2.074219 -1.738281 1.464844 -1.839844 Z M 1.464844 -1.839844 "/></g></g></g><g fill="#2f2f2f" fill-opacity="1"><g transform="translate(139.340551, 86.678791)"><g><path d="M 2.476562 -3.316406 L 2.476562 -1.828125 L 0.648438 -1.828125 L 0.648438 -3.316406 L 0.308594 -3.316406 L 0.308594 0 L 0.648438 0 L 0.648438 -1.488281 L 2.476562 -1.488281 L 2.476562 0 L 2.820312 0 L 2.820312 -3.316406 Z M 2.476562 -3.316406 "/></g></g></g><g fill="#2f2f2f" fill-opacity="1"><g transform="translate(143.775634, 86.678791)"><g><path d="M 1.824219 -3.34375 C 0.890625 -3.34375 0.214844 -2.585938 0.214844 -1.652344 C 0.214844 -0.71875 0.890625 0.0390625 1.824219 0.0390625 C 2.757812 0.0390625 3.429688 -0.71875 3.429688 -1.652344 C 3.429688 -2.585938 2.757812 -3.34375 1.824219 -3.34375 Z M 1.824219 -0.296875 C 1.074219 -0.296875 0.5625 -0.90625 0.5625 -1.652344 C 0.5625 -2.402344 1.074219 -3.007812 1.824219 -3.007812 C 2.566406 -3.007812 3.078125 -2.402344 3.078125 -1.652344 C 3.078125 -0.90625 2.566406 -0.296875 1.824219 -0.296875 Z M 1.824219 -0.296875 "/></g></g></g><g fill="#2f2f2f" fill-opacity="1"><g transform="translate(148.727164, 86.678791)"><g><path d="M 1.554688 -3.316406 L 0.308594 -3.316406 L 0.308594 0 L 0.652344 0 L 0.652344 -1.261719 L 1.554688 -1.261719 C 2.15625 -1.261719 2.59375 -1.730469 2.59375 -2.289062 C 2.59375 -2.847656 2.175781 -3.316406 1.554688 -3.316406 Z M 1.554688 -1.601562 L 0.652344 -1.601562 L 0.652344 -2.976562 L 1.554688 -2.976562 C 1.976562 -2.976562 2.238281 -2.660156 2.238281 -2.289062 C 2.238281 -1.917969 1.972656 -1.601562 1.554688 -1.601562 Z M 1.554688 -1.601562 "/></g></g></g></svg>